<?xml version="1.0" encoding="UTF-8"?>
<svg id="Layer_2" data-name="Layer 2" xmlns="http://www.w3.org/2000/svg" width="32" height="33" viewBox="0 0 32 30.12">
  <defs>
    <style>
      .cls-1 {
        fill: #1ca8cb;
        stroke-width: 0px;
      }
    </style>
  </defs>
  <g id="Layer_1-2" data-name="Layer 1">
    <g>
      <path class="cls-1" d="m0,15.71c0-3.33,0-6.66,0-9.98,0-1.86,1.06-2.92,2.93-2.92.45,0,.9-.02,1.34,0,.34.02.5-.07.53-.45.05-.61.23-1.2.59-1.72.59-.85,1.49-.85,2.07,0,.34.5.53,1.07.58,1.67.03.41.21.53.59.5.41-.03.83-.03,1.24,0,.38.03.56-.08.59-.5.05-.59.23-1.17.58-1.67.57-.83,1.45-.85,2.04-.04.38.52.56,1.13.62,1.76.03.37.18.47.53.45.46-.03.93-.03,1.39,0,.35.02.46-.12.49-.45.05-.56.21-1.11.5-1.6.61-1.02,1.62-1.02,2.23,0,.29.49.47,1.03.51,1.59.03.37.18.48.53.45.45-.03.9-.04,1.34,0,.4.03.51-.14.54-.5.06-.56.22-1.1.52-1.59.6-.96,1.59-.96,2.19,0,.32.51.49,1.09.55,1.68.03.32.16.42.47.41.5-.02.99,0,1.49,0,1.54.02,2.7,1.17,2.71,2.7,0,2.85,0,5.7,0,8.54,0,.34-.03.67-.46.67-.44,0-.47-.34-.47-.67,0-2.73,0-5.46,0-8.2,0-.41.01-.83-.21-1.21-.31-.54-.76-.88-1.4-.89-1.39-.02-2.78,0-4.17-.02-.3,0-.38.11-.33.38.07.43.15.85.36,1.23.11.21.22.39.49.45.28.06.41.28.33.57-.07.27-.29.34-.55.32-.39-.03-.67-.26-.89-.57-.37-.53-.58-1.12-.62-1.76-.03-.5-.23-.65-.73-.63-1.22.04-2.45.03-3.68,0-.36,0-.43.13-.37.44.08.37.14.75.31,1.1.11.24.24.46.54.54.25.06.39.26.33.53-.06.3-.29.38-.57.35-.57-.06-.85-.47-1.08-.92-.26-.5-.4-1.05-.44-1.62-.02-.3-.14-.42-.46-.41-1.31.02-2.62.02-3.92,0-.31,0-.43.1-.36.4.08.39.14.78.32,1.14.12.23.23.46.54.53.26.06.37.27.31.54-.06.28-.27.35-.53.33-.48-.03-.78-.33-1.01-.71-.33-.55-.5-1.15-.54-1.79-.02-.33-.15-.45-.49-.45-1.29.02-2.58.02-3.87,0-.38,0-.45.14-.38.47.08.37.14.75.32,1.09.11.22.23.43.51.5.29.07.4.29.33.57-.07.28-.3.33-.55.31-.4-.03-.67-.26-.89-.57-.4-.57-.59-1.22-.63-1.91-.03-.35-.13-.5-.5-.47-.54.03-1.09,0-1.64.01-.99.03-1.67.71-1.73,1.69-.01.18,0,.36,0,.55,0,6.52,0,13.05,0,19.57,0,1.55.63,2.18,2.16,2.18,4.34,0,8.68,0,13.01,0,.38,0,1-.21.99.46,0,.63-.6.43-.97.43-4.4.01-8.81,0-13.21,0C1.07,28.64,0,27.57,0,25.74c0-3.34,0-6.69,0-10.03ZM23.4,2.8c.16,0,.33,0,.49,0,.19,0,.27-.07.24-.27-.08-.47-.19-.93-.45-1.35-.18-.29-.37-.31-.56-.01-.16.25-.27.53-.34.82q-.21.81.62.81Zm-17,0c.18,0,.36,0,.54,0,.17,0,.24-.08.21-.25-.09-.49-.18-.97-.47-1.39-.18-.27-.36-.25-.53,0-.18.26-.28.56-.36.86-.2.78-.19.78.6.78Zm5.64,0h0c.18,0,.36,0,.54,0,.15,0,.26-.05.23-.23-.08-.49-.18-.97-.46-1.39-.19-.29-.37-.28-.56.01-.25.38-.33.82-.43,1.25-.07.3.06.39.33.36.11,0,.23,0,.35,0Zm5.66,0c.15,0,.3,0,.44,0,.25.01.37-.05.31-.34-.09-.4-.16-.81-.37-1.17-.25-.43-.46-.44-.69-.01-.13.24-.23.51-.29.78-.19.74-.18.74.6.74Z"/>
      <path class="cls-1" d="m17.92,17.49c-.49.07-.89.13-1.3.19-.31.04-.6,0-.66-.35-.07-.38.21-.52.53-.57.82-.13,1.64-.24,2.46-.36.4-.06.63.09.65.52.04.81.1,1.62.16,2.43.02.33-.04.64-.42.67-.41.03-.51-.29-.52-.63-.02-.39-.04-.78-.06-1.16-.19-.08-.22.05-.26.12-3,4.24-.23,10.29,4.94,10.8,3.11.31,5.99-1.4,7.15-4.25,1.16-2.85.3-6.15-2.14-8.04-1.72-1.34-3.68-1.74-5.81-1.3-.2.04-.39.12-.58.02-.17-.09-.28-.23-.25-.44.04-.27.22-.38.47-.44,1.38-.34,2.76-.32,4.12.08,4,1.17,6.33,5.21,5.41,9.35-.87,3.92-4.78,6.54-8.81,5.92-5.65-.87-8.51-7.29-5.37-12.05.09-.13.17-.27.3-.49Z"/>
      <path class="cls-1" d="m5.56,19.26c-.48,0-.96.01-1.44,0-.69-.03-1.1-.45-1.11-1.14-.01-.84,0-1.69,0-2.53,0-.7.41-1.13,1.1-1.15.99-.02,1.99-.02,2.98,0,.66.01,1.07.45,1.07,1.11,0,.86,0,1.72,0,2.58,0,.69-.41,1.09-1.11,1.13-.03,0-.07,0-.1,0-.46,0-.93,0-1.39,0h0Zm.04-3.88s0,0,0,0c-.4,0-.79.02-1.19,0-.33-.02-.48.08-.47.43.02.71.01,1.42,0,2.13,0,.26.07.39.37.39.86-.01,1.72-.01,2.58,0,.29,0,.37-.12.37-.39,0-.73,0-1.45,0-2.18,0-.27-.09-.39-.37-.38-.43.02-.86,0-1.29,0Z"/>
      <path class="cls-1" d="m11.76,19.27c-.48,0-.96,0-1.44,0-.69-.02-1.13-.42-1.14-1.1-.02-.88-.02-1.75,0-2.63.02-.65.45-1.07,1.11-1.08.98-.01,1.95-.01,2.93,0,.69.01,1.1.43,1.11,1.13.01.86.01,1.72,0,2.58-.01.7-.42,1.09-1.12,1.11-.03,0-.07,0-.1,0-.45,0-.89,0-1.34,0Zm0-.94h0c.4,0,.79-.02,1.19,0,.33.02.48-.09.47-.44-.02-.69-.02-1.39,0-2.08,0-.32-.11-.44-.43-.43-.83.02-1.65.02-2.48,0-.29,0-.41.08-.41.39.02.73.02,1.45,0,2.18,0,.32.14.39.42.38.41-.01.83,0,1.24,0Z"/>
      <path class="cls-1" d="m24.06,13.32c-.48,0-.96,0-1.44,0-.65-.02-1.09-.44-1.1-1.09-.02-.88-.02-1.75,0-2.63.02-.66.45-1.07,1.11-1.08.98-.01,1.95-.02,2.93,0,.72.01,1.12.43,1.13,1.16.01.81.01,1.62,0,2.43,0,.79-.41,1.19-1.19,1.2-.48,0-.96,0-1.44,0h0Zm.07-3.88c-.43,0-.86.01-1.29,0-.31-.01-.4.11-.4.4.01.73.02,1.45,0,2.18,0,.31.12.4.41.39.83-.01,1.65,0,2.48,0,.31,0,.44-.1.43-.43-.02-.68-.03-1.35,0-2.03.02-.43-.15-.55-.55-.51-.36.03-.73,0-1.09,0Z"/>
      <path class="cls-1" d="m5.58,20.38c.5,0,.99,0,1.49,0,.67.01,1.07.41,1.08,1.09.01.86.01,1.72,0,2.58,0,.68-.38,1.11-1.05,1.13-1.01.03-2.02.03-3.02,0-.7-.02-1.07-.45-1.07-1.16,0-.83,0-1.65,0-2.48,0-.72.43-1.14,1.14-1.15.48,0,.96,0,1.44,0Zm.03.91c-.41,0-.83.01-1.24,0-.32-.01-.44.1-.43.43.02.71.02,1.42,0,2.13-.01.34.14.42.44.42.81-.01,1.62-.02,2.43,0,.32,0,.45-.1.44-.42-.01-.69-.02-1.39,0-2.08.01-.38-.15-.49-.5-.47-.38.02-.76,0-1.14,0Z"/>
      <path class="cls-1" d="m17.9,13.32c-.48,0-.96,0-1.44,0-.68-.01-1.11-.44-1.12-1.12-.01-.86-.02-1.72,0-2.58.01-.66.44-1.09,1.1-1.1.99-.02,1.98-.02,2.98,0,.68.01,1.07.41,1.08,1.1.02.86.02,1.72,0,2.58-.01.71-.44,1.11-1.17,1.12-.48,0-.96,0-1.44,0Zm.03-.92c.43,0,.86,0,1.29,0,.23,0,.38-.05.37-.33-.01-.78,0-1.55,0-2.33,0-.24-.12-.31-.34-.31-.87,0-1.75,0-2.62,0-.26,0-.35.1-.35.35,0,.74.01,1.49,0,2.23,0,.31.13.4.41.39.41-.01.82,0,1.24,0Z"/>
      <path class="cls-1" d="m11.72,13.32c-.48,0-.96.01-1.44,0-.67-.02-1.09-.42-1.11-1.08-.02-.88-.02-1.75,0-2.63.01-.66.44-1.07,1.11-1.08.98-.02,1.95-.02,2.93,0,.72.01,1.11.4,1.12,1.11.01.86.01,1.72,0,2.58-.01.71-.4,1.1-1.11,1.11-.5,0-.99,0-1.49,0,0,0,0,0,0,0Zm.04-.92c.43,0,.86,0,1.29,0,.28,0,.38-.11.38-.38-.01-.74,0-1.48,0-2.23,0-.25-.09-.36-.35-.36-.87,0-1.75,0-2.62,0-.26,0-.35.11-.34.35,0,.74.01,1.48,0,2.23,0,.31.13.4.42.39.41-.01.82,0,1.24,0Z"/>
      <path class="cls-1" d="m11.79,20.38c.48,0,.96,0,1.44,0,.67.01,1.09.4,1.1,1.08.02.89.01,1.79,0,2.68-.01.59-.39,1.01-.98,1.03-1.06.03-2.12.03-3.17,0-.59-.02-.97-.45-.99-1.04-.02-.89-.02-1.79,0-2.68.02-.65.46-1.05,1.12-1.07.5,0,.99,0,1.49,0Zm-.06,3.88c.43,0,.86-.01,1.29,0,.3.01.41-.12.41-.41-.01-.73-.01-1.46,0-2.18,0-.29-.12-.38-.38-.38-.86,0-1.72,0-2.58,0-.25,0-.35.11-.35.36,0,.74,0,1.49,0,2.23,0,.27.09.39.37.38.41-.01.83,0,1.24,0Z"/>
      <path class="cls-1" d="m21.13,21.39c.2.01.33.15.46.27.55.55,1.12,1.08,1.64,1.65.26.29.42.24.67-.01.94-.97,1.91-1.93,2.87-2.88.16-.16.3-.36.58-.32.19.02.31.12.37.29.07.18.04.36-.11.5-1.24,1.24-2.48,2.48-3.72,3.72-.21.2-.45.21-.66,0-.81-.8-1.62-1.61-2.42-2.42-.16-.16-.18-.36-.08-.55.08-.15.21-.25.4-.24Z"/>
    </g>
  </g>
</svg>