<?xml version="1.0" encoding="UTF-8"?>
<svg id="Layer_2" data-name="Layer 2" xmlns="http://www.w3.org/2000/svg" viewBox="0 0 32 40.01">
  <defs>
    <style>
      .cls-1 {
        fill: #1ca8cb;
        stroke-width: 0px;
      }
    </style>
  </defs>
  <g id="Layer_1-2" data-name="Layer 1">
    <g>
      <path class="cls-1" d="m32,20c0,5.31,0,10.61,0,15.92,0,2.34-1.75,4.08-4.1,4.08-7.96,0-15.92,0-23.88,0-2.25,0-4.02-1.77-4.02-4.01,0-10.66,0-21.32,0-31.98C0,1.77,1.77,0,4.02,0,12.01,0,20,0,27.99,0c2.24,0,4.01,1.77,4.01,4.02,0,5.33,0,10.65,0,15.98Zm-2.67.03h0c0-5.29,0-10.57,0-15.86,0-.97-.52-1.5-1.49-1.5-7.91,0-15.82,0-23.73,0-.89,0-1.44.54-1.44,1.44,0,10.57,0,21.15,0,31.72,0,.99.52,1.5,1.52,1.5,7.88,0,15.76,0,23.64,0,.97,0,1.49-.52,1.49-1.5,0-5.27,0-10.53,0-15.8Z"/>
      <path class="cls-1" d="m26,25.36c.02,5.45-4.47,9.96-9.93,9.98-5.51.02-10.05-4.42-10.07-9.86-.03-5.61,4.42-10.13,9.97-10.15,5.54-.01,10.01,4.45,10.03,10.03Zm-17.33-.03c0,4.04,3.29,7.33,7.33,7.33,4.05,0,7.35-3.3,7.34-7.35,0-4.02-3.3-7.3-7.33-7.31-4.03,0-7.34,3.3-7.34,7.32Z"/>
      <path class="cls-1" d="m15.99,8c-3.1,0-6.2,0-9.3,0-.57,0-.99-.26-1.23-.77-.23-.5-.16-.99.19-1.42.29-.36.69-.48,1.14-.48,1.26,0,2.53,0,3.79,0,4.84,0,9.68,0,14.52,0,.38,0,.74.03,1.05.28.47.37.64.96.45,1.52-.19.54-.67.88-1.28.88-3.11,0-6.22,0-9.33,0Z"/>
      <path class="cls-1" d="m13.35,10.67c2.22,0,4.43,0,6.65,0,.61,0,1.12.38,1.29.95.17.57-.05,1.17-.56,1.5-.23.15-.5.22-.77.22-4.4,0-8.8,0-13.21,0-.83,0-1.42-.57-1.42-1.34,0-.77.6-1.33,1.43-1.33,2.2,0,4.39,0,6.59,0Z"/>
      <path class="cls-1" d="m24.68,10.67c.21,0,.43,0,.64,0,.76.01,1.34.58,1.35,1.32,0,.72-.55,1.32-1.29,1.35-.48.02-.97.02-1.46,0-.73-.04-1.29-.65-1.26-1.37.02-.71.59-1.27,1.32-1.29.23,0,.47,0,.7,0Z"/>
      <path class="cls-1" d="m14.98,29.07c-.25,0-.59-.14-.87-.43-.95-.95-1.9-1.89-2.84-2.84-.57-.57-.58-1.39-.05-1.93.52-.53,1.36-.52,1.93.03.59.57,1.18,1.16,1.75,1.75.16.16.24.14.39,0,1.19-1.21,2.39-2.42,3.58-3.63.37-.38.83-.5,1.34-.36.49.13.8.47.93.96.13.53-.04.97-.42,1.35-1.34,1.35-2.68,2.7-4.02,4.06-.23.23-.46.47-.7.7-.24.23-.52.36-1.01.35Z"/>
    </g>
  </g>
</svg>