<?xml version="1.0" encoding="UTF-8"?>
<svg id="Layer_2" data-name="Layer 2" xmlns="http://www.w3.org/2000/svg" width="32" height="33" viewBox="0 0 31.4 22.03">
  <defs>
    <style>
      .cls-1, .cls-2 {
        stroke-width: 0px;
      }

      .cls-2 {
        fill: #1ca8cb;
      }
    </style>
  </defs>
  <g id="Layer_1-2" data-name="Layer 1">
    <g>
      <path class="cls-1" d="m11.4,3.43c.73.2,1.43.38,2.13.57.11.03.19.02.28-.04.88-.58,1.87-.77,2.9-.85.88-.07,1.77.01,2.65-.09.21-.02.4-.03.42-.32,0-.07.1-.15.16-.21.74-.75,1.48-1.49,2.23-2.24.34-.34.56-.33.89,0,2.66,2.66,5.32,5.32,7.98,7.98.48.48.48.63,0,1.11-.69.69-1.38,1.38-2.07,2.06-.36.35-.53.37-.89.02-.2-.19-.25-.05-.34.08-1,1.44-2.15,2.75-3.62,3.73-.34.23-.56.45-.65.89-.2.96-1.18,1.53-2.17,1.34-.19-.04-.25,0-.31.18-.34,1.05-1.19,1.55-2.27,1.33-.2-.04-.27-.02-.33.19-.32.96-1.17,1.46-2.18,1.28-.17-.03-.23,0-.29.17-.49,1.5-2.11,1.89-3.23.77-2.38-2.37-4.75-4.73-7.11-7.12-.78-.79-1.38-1.73-1.91-2.71-.11-.2-.17-.32-.39-.09-.28.29-.5.28-.79,0-.76-.76-1.52-1.52-2.28-2.28-.28-.28-.28-.52,0-.79C2.92,5.67,5.64,2.96,8.35.25c.34-.34.55-.33.89.02.7.7,1.39,1.39,2.09,2.09.44.44.45.52.06,1.07Zm1.22,1.34s-.06-.05-.08-.06c-.38-.11-.78-.17-1.14-.34-.56-.26-.93-.13-1.36.32-1.86,1.92-3.77,3.79-5.66,5.68-.1.1-.22.18-.11.37.67,1.19,1.38,2.34,2.37,3.29,1.09,1.05,2.15,2.14,3.22,3.21,1.15,1.15,2.31,2.31,3.46,3.46.24.25.52.4.88.36.38-.05.66-.24.79-.61.14-.39.06-.74-.23-1.03-.85-.85-1.7-1.7-2.54-2.55-.25-.26-.27-.51-.07-.72.2-.2.47-.18.72.06.31.3.61.61.91.91.7.7,1.39,1.4,2.09,2.09.42.42,1.02.42,1.4.04.39-.39.37-.94-.05-1.39-.08-.08-.16-.16-.24-.24-.66-.66-1.32-1.31-1.97-1.97-.22-.23-.23-.5-.05-.69.19-.19.46-.18.69.04.04.04.08.08.12.12.86.87,1.73,1.73,2.59,2.6.47.47,1.06.51,1.47.11.42-.41.37-.98-.12-1.47-.68-.68-1.36-1.36-2.04-2.04-.08-.08-.16-.16-.24-.24-.22-.24-.23-.51-.05-.7.19-.19.46-.17.7.04.06.05.11.11.17.17.85.85,1.71,1.68,2.54,2.55.59.62,1.22.47,1.56.14.4-.4.32-.98-.19-1.49-1.87-1.87-3.72-3.74-5.61-5.59-.38-.38-.63-.75-.55-1.3.01-.09.03-.2-.05-.3-.1.07-.19.13-.28.19-.69.49-1.4.91-2.2,1.19-.59.21-1.2.34-1.83.23-.65-.11-1.24-.37-1.5-1.03-.25-.63.06-1.15.44-1.62.3-.38.66-.71,1.04-1.02.33-.26.65-.51.99-.78Zm7.17,3.01c0,.28-.21.46-.55.47-.68.01-1.35-.1-2.02-.24-.08-.02-.19-.09-.24.02-.04.09-.04.2.04.29.06.07.13.13.19.19,1.34,1.34,2.68,2.67,4.01,4.01.64.64,1.29,1.28,1.9,1.94.16.17.23.2.42.07,1.46-.99,2.58-2.3,3.56-3.74.11-.16.07-.25-.05-.36-.71-.7-1.41-1.41-2.11-2.11-1.46-1.46-2.92-2.91-4.37-4.37-.11-.11-.2-.19-.38-.13-.45.15-.93.19-1.41.19-.75,0-1.49,0-2.24.06-.74.06-1.46.21-2.1.61-.95.6-1.84,1.27-2.69,2.01-.25.22-.47.46-.64.75-.21.35-.15.55.22.73.2.1.42.16.65.17.46.02.9-.1,1.32-.26.85-.34,1.61-.82,2.32-1.4.25-.2.48-.23.73-.02.31.26.69.38,1.08.47.59.13,1.18.21,1.78.22.35,0,.56.19.56.46ZM10.52,2.87c-.05-.05-.09-.11-.15-.17-.46-.46-.94-.92-1.39-1.4-.16-.17-.24-.14-.39,0C6.16,3.75,3.73,6.18,1.29,8.61c-.14.14-.14.21,0,.34.46.45.93.9,1.37,1.37.18.19.29.19.47,0,.97-.99,1.96-1.97,2.95-2.96,1.42-1.42,2.83-2.83,4.25-4.25.07-.07.16-.12.19-.25Zm19.77,5.87c-.08-.06-.16-.11-.22-.17-2.42-2.42-4.84-4.84-7.25-7.26-.14-.14-.22-.18-.37-.02-.45.48-.92.94-1.39,1.39-.18.18-.14.28.02.43.54.52,1.06,1.05,1.59,1.58,1.88,1.88,3.76,3.76,5.65,5.64.11.11.19.26.37.06.48-.5.97-.98,1.46-1.47.05-.05.08-.1.15-.19Z"/>
      <path class="cls-2" d="m11.4,3.43c.73.2,1.43.38,2.13.57.11.03.19.02.28-.04.88-.58,1.87-.77,2.9-.85.88-.07,1.77.01,2.65-.09.21-.02.4-.03.42-.32,0-.07.1-.15.16-.21.74-.75,1.48-1.49,2.23-2.24.34-.34.56-.33.89,0,2.66,2.66,5.32,5.32,7.98,7.98.48.48.48.63,0,1.11-.69.69-1.38,1.38-2.07,2.06-.36.35-.53.37-.89.02-.2-.19-.25-.05-.34.08-1,1.44-2.15,2.75-3.62,3.73-.34.23-.56.45-.65.89-.2.96-1.18,1.53-2.17,1.34-.19-.04-.25,0-.31.18-.34,1.05-1.19,1.55-2.27,1.33-.2-.04-.27-.02-.33.19-.32.96-1.17,1.46-2.18,1.28-.17-.03-.23,0-.29.17-.49,1.5-2.11,1.89-3.23.77-2.38-2.37-4.75-4.73-7.11-7.12-.78-.79-1.38-1.73-1.91-2.71-.11-.2-.17-.32-.39-.09-.28.29-.5.28-.79,0-.76-.76-1.52-1.52-2.28-2.28-.28-.28-.28-.52,0-.79C2.92,5.67,5.64,2.96,8.35.25c.34-.34.55-.33.89.02.7.7,1.39,1.39,2.09,2.09.44.44.45.52.06,1.07Zm1.22,1.34s-.06-.05-.08-.06c-.38-.11-.78-.17-1.14-.34-.56-.26-.93-.13-1.36.32-1.86,1.92-3.77,3.79-5.66,5.68-.1.1-.22.18-.11.37.67,1.19,1.38,2.34,2.37,3.29,1.09,1.05,2.15,2.14,3.22,3.21,1.15,1.15,2.31,2.31,3.46,3.46.24.25.52.4.88.36.38-.05.66-.24.79-.61.14-.39.06-.74-.23-1.03-.85-.85-1.7-1.7-2.54-2.55-.25-.26-.27-.51-.07-.72.2-.2.47-.18.72.06.31.3.61.61.91.91.7.7,1.39,1.4,2.09,2.09.42.42,1.02.42,1.4.04.39-.39.37-.94-.05-1.39-.08-.08-.16-.16-.24-.24-.66-.66-1.32-1.31-1.97-1.97-.22-.23-.23-.5-.05-.69.19-.19.46-.18.69.04.04.04.08.08.12.12.86.87,1.73,1.73,2.59,2.6.47.47,1.06.51,1.47.11.42-.41.37-.98-.12-1.47-.68-.68-1.36-1.36-2.04-2.04-.08-.08-.16-.16-.24-.24-.22-.24-.23-.51-.05-.7.19-.19.46-.17.7.04.06.05.11.11.17.17.85.85,1.71,1.68,2.54,2.55.59.62,1.22.47,1.56.14.4-.4.32-.98-.19-1.49-1.87-1.87-3.72-3.74-5.61-5.59-.38-.38-.63-.75-.55-1.3.01-.09.03-.2-.05-.3-.1.07-.19.13-.28.19-.69.49-1.4.91-2.2,1.19-.59.21-1.2.34-1.83.23-.65-.11-1.24-.37-1.5-1.03-.25-.63.06-1.15.44-1.62.3-.38.66-.71,1.04-1.02.33-.26.65-.51.99-.78Zm7.17,3.01c0,.28-.21.46-.55.47-.68.01-1.35-.1-2.02-.24-.08-.02-.19-.09-.24.02-.04.09-.04.2.04.29.06.07.13.13.19.19,1.34,1.34,2.68,2.67,4.01,4.01.64.64,1.29,1.28,1.9,1.94.16.17.23.2.42.07,1.46-.99,2.58-2.3,3.56-3.74.11-.16.07-.25-.05-.36-.71-.7-1.41-1.41-2.11-2.11-1.46-1.46-2.92-2.91-4.37-4.37-.11-.11-.2-.19-.38-.13-.45.15-.93.19-1.41.19-.75,0-1.49,0-2.24.06-.74.06-1.46.21-2.1.61-.95.6-1.84,1.27-2.69,2.01-.25.22-.47.46-.64.75-.21.35-.15.55.22.73.2.1.42.16.65.17.46.02.9-.1,1.32-.26.85-.34,1.61-.82,2.32-1.4.25-.2.48-.23.73-.02.31.26.69.38,1.08.47.59.13,1.18.21,1.78.22.35,0,.56.19.56.46ZM10.52,2.87c-.05-.05-.09-.11-.15-.17-.46-.46-.94-.92-1.39-1.4-.16-.17-.24-.14-.39,0C6.16,3.75,3.73,6.18,1.29,8.61c-.14.14-.14.21,0,.34.46.45.93.9,1.37,1.37.18.19.29.19.47,0,.97-.99,1.96-1.97,2.95-2.96,1.42-1.42,2.83-2.83,4.25-4.25.07-.07.16-.12.19-.25Zm19.77,5.87c-.08-.06-.16-.11-.22-.17-2.42-2.42-4.84-4.84-7.25-7.26-.14-.14-.22-.18-.37-.02-.45.48-.92.94-1.39,1.39-.18.18-.14.28.02.43.54.52,1.06,1.05,1.59,1.58,1.88,1.88,3.76,3.76,5.65,5.64.11.11.19.26.37.06.48-.5.97-.98,1.46-1.47.05-.05.08-.1.15-.19Z"/>
    </g>
  </g>
</svg>