<?xml version="1.0" encoding="UTF-8"?>
<svg id="Layer_2" data-name="Layer 2" xmlns="http://www.w3.org/2000/svg" width="32" height="33" viewBox="0 0 24.1 18.02">
  <defs>
    <style>
      .cls-1 {
        fill: #1ca8cb;
        stroke-width: 0px;
      }
    </style>
  </defs>
  <g id="Layer_1-2" data-name="Layer 1">
    <g>
      <path class="cls-1" d="m1.45,6.54c-.42-.09-.77-.18-1.06-.41-.52-.4-.52-1.06.03-1.43.6-.4,1.29-.38,1.95-.23.42.09.36.53.43.97.19-.35.32-.59.44-.83.48-.99.96-1.98,1.43-2.97C5.19.6,6,.05,7.2.03c3.2-.04,6.4-.04,9.6,0,1.28.01,2.13.59,2.67,1.72.5,1.06,1.02,2.12,1.54,3.17.07.15.11.33.31.43.04-.44.07-.91.64-.92.74-.02,1.54-.15,2.04.63.23.36.07.84-.32,1.11-.29.2-.62.29-1,.37.54.72.55,1.57.59,2.39.11,2.73-.15,5.46-.08,8.19.01.53-.35.88-.9.89-.83.02-1.66.02-2.49,0-.51-.01-.84-.35-.89-.86,0-.05,0-.09,0-.14q-.03-1.09-1.11-1.09c-4.03,0-8.07.01-12.1,0-.38,0-.51.08-.51.49.01,1.51-.11,1.62-1.64,1.62-.56,0-1.13.01-1.69,0-.6-.02-.96-.35-.94-.94.06-2.56-.13-5.11-.1-7.67,0-.55.08-1.09.14-1.64.05-.42.16-.83.5-1.21Zm10.62,8.87s0,0,0,0c3.07,0,6.15,0,9.22,0,.93,0,1.12-.16,1.24-1.05.28-2.03.34-4.06.19-6.1-.06-.83-.36-1.48-1.15-1.84-.42-.2-.67-.55-.87-.96-.58-1.2-1.17-2.39-1.75-3.59-.43-.9-1.12-1.32-2.13-1.33-3.17-.05-6.34-.02-9.5,0-1.07,0-1.78.46-2.23,1.41-.5,1.06-1.04,2.11-1.53,3.18-.29.63-.68,1.15-1.31,1.48-.51.26-.75.71-.82,1.28-.24,2.02-.16,4.04.08,6.05.17,1.44.25,1.49,1.71,1.49,2.95,0,5.9,0,8.85,0Zm-10.66.08c0,.59,0,1.05,0,1.52,0,.32.16.49.49.49.77,0,1.54,0,2.3,0,.33,0,.46-.18.48-.5.05-1.09.05-1.09-1.02-1.09-.31,0-.63,0-.94,0-.44-.01-.88-.05-1.32-.42Zm21.27.03c-.74.51-1.49.38-2.22.39-1.11,0-1.1,0-1.05,1.1.02.33.16.49.49.49.77,0,1.54,0,2.3,0,.31,0,.47-.15.47-.46,0-.48,0-.97,0-1.52ZM1.86,6.04c.21,0,.63.1.37-.5-.05-.1,0-.25,0-.37,0-.12-.02-.23-.16-.24-.45-.03-.91-.07-1.32.18-.3.18-.3.43-.02.64.3.22.65.29,1.14.3Zm20.47,0c.37,0,.72-.06,1.03-.27.2-.13.35-.33.15-.54-.39-.41-.93-.34-1.41-.3-.39.04-.11.42-.21.62-.25.54.09.51.44.49Z"/>
      <path class="cls-1" d="m12,5.75c-2.37,0-4.73,0-7.1,0-.83,0-1.01-.26-.72-1.04.35-.96.69-1.92,1.17-2.82.2-.38.47-.61.91-.63.69-.03,1.38-.1,2.07-.11,2.92-.02,5.83-.04,8.75.03,1.05.02,1.67.39,2,1.38.25.74.57,1.46.85,2.19.27.73.09,1-.68,1-2.41,0-4.83,0-7.24,0Zm.08-4.09c-1.88.01-3.76-.05-5.64.09-.34.03-.54.17-.69.46-.32.63-.58,1.28-.83,1.94q-.42,1.11.77,1.09.86-.01,1.03-.84c.17-.84.57-1.15,1.45-1.14.83,0,1.24.35,1.38,1.18.02.12.05.25.05.37,0,.31.14.39.43.38,1.22-.02,2.45,0,3.67,0,.72,0,.72,0,.84-.71.14-.86.54-1.22,1.38-1.24.9-.02,1.31.33,1.48,1.23.03.15.06.31.06.47,0,.22.09.31.32.3.49,0,.97,0,1.46.01.25,0,.34-.05.24-.32-.32-.87-.65-1.73-1.04-2.57-.19-.41-.46-.61-.93-.63-1.8-.1-3.61-.07-5.41-.07Zm3.89,3.55s0,0,0,.01c.25,0,.5,0,.75,0,.12,0,.2-.02.23-.16.17-.79-.39-1.39-1.2-1.3-.52.06-.82.47-.76,1.2.04.49.46.15.69.25.08.03.19,0,.28,0Zm-7.9,0s0,0,0-.01c.27,0,.53,0,.8,0,.14,0,.22-.03.24-.2.08-.83-.37-1.31-1.17-1.23-.66.07-.78.55-.77,1.24,0,.46.48.1.72.2.05.02.12,0,.19,0Z"/>
      <path class="cls-1" d="m12.07,10.63c1.68,0,3.36,0,5.04,0,.19,0,.38,0,.56.02.79.09,1.11.57.82,1.32-.32.84-.79,1.6-1.28,2.35-.24.36-.61.53-1.05.53-2.75,0-5.49,0-8.24,0-.5,0-.88-.23-1.13-.65-.39-.66-.79-1.32-1.12-2.02-.45-.96-.08-1.54.98-1.55,1.8-.02,3.61,0,5.41,0h0Zm-.03,3.7c1.3,0,2.6-.02,3.91,0,.51,0,.83-.18,1.06-.62.23-.44.5-.87.74-1.31.6-1.09.49-1.28-.75-1.28-2.68,0-5.36,0-8.05,0-.78,0-1.57-.01-2.35.02-.61.02-.74.23-.47.78.33.68.72,1.32,1.09,1.98.18.32.47.43.83.42,1.33-.01,2.67,0,4,0Z"/>
      <path class="cls-1" d="m4.16,10.27c-.44-.03-.87-.05-1.31-.1-.84-.09-1.23-.51-1.18-1.27.05-.81.52-1.25,1.37-1.17,1.03.09,1.96.52,2.86,1,.31.16.45.48.38.84-.06.34-.33.48-.63.56-.49.14-.99.13-1.49.14Zm-.17-.52c.5.01,1,0,1.5-.1.12-.03.26-.06.29-.2.03-.14-.06-.25-.17-.31-.87-.42-1.74-.86-2.74-.91-.46-.02-.64.27-.68.67-.04.41.13.68.55.73.42.06.84.08,1.26.11Z"/>
      <path class="cls-1" d="m19.95,10.27c-.47,0-.94-.01-1.4-.12-.35-.08-.67-.22-.73-.63-.06-.39.14-.69.46-.85.84-.42,1.7-.81,2.64-.94.83-.12,1.29.19,1.47.89.21.82-.16,1.41-.99,1.53-.48.07-.96.08-1.45.12Zm.27-.54c.26-.02.67-.02,1.07-.08.53-.08.7-.31.63-.79-.06-.47-.3-.69-.81-.63-.92.1-1.74.49-2.56.88-.13.06-.24.18-.21.34.03.17.2.19.33.22.46.09.93.1,1.55.07Z"/>
      <path class="cls-1" d="m11.96,11.55c1.5,0,3.01,0,4.51,0,.19,0,.46-.07.46.24,0,.31-.26.25-.45.25-3.03,0-6.05,0-9.08,0-.2,0-.45.05-.44-.27.01-.28.25-.23.43-.23,1.52,0,3.04,0,4.56,0h0Z"/>
      <path class="cls-1" d="m11.96,12.48c1.35,0,2.69,0,4.04,0,.14,0,.28,0,.42.02.1.01.16.09.17.2,0,.12-.03.23-.15.26-.1.03-.22.03-.33.03-2.77,0-5.55,0-8.32,0-.2,0-.46.05-.47-.25-.01-.31.26-.25.45-.25,1.39,0,2.79,0,4.18,0Z"/>
      <path class="cls-1" d="m11.91,13.93c-1.24,0-2.47,0-3.71,0-.19,0-.46.07-.46-.24,0-.31.26-.26.45-.26,2.51,0,5.01,0,7.52,0,.19,0,.46-.06.46.24,0,.31-.26.25-.45.26-1.27,0-2.54,0-3.81,0h0Z"/>
    </g>
  </g>
</svg>