<?xml version="1.0" encoding="UTF-8"?>
<svg id="Layer_2" data-name="Layer 2" xmlns="http://www.w3.org/2000/svg" width="32" height="33" viewBox="0 0 33.36 30.16">
  <defs>
    <style>
      .cls-1 {
        fill: #1ca8cb;
        stroke-width: 0px;
      }
    </style>
  </defs>
  <g id="Layer_1-2" data-name="Layer 1">
    <g>
      <path class="cls-1" d="m26.94,20.44c0,2.33,0,4.66,0,6.99,0,1.39-.63,2.03-2.02,2.04-.32,0-.63.01-.95,0-.22-.01-.38-.13-.39-.37-.01-.27.15-.41.4-.42.33-.02.67,0,1.01,0,.87,0,1.18-.31,1.18-1.18-.02-2.21-.04-4.43-.06-6.64-.02-2.79-.03-5.57-.04-8.36,0-.71.05-.77.78-.77,1.52,0,3.04,0,4.56,0,.85,0,1.16-.33,1.16-1.19,0-.92-.3-1.26-1.17-1.26-4.43,0-8.85-.01-13.28,0-1.47,0-2.36.92-2.36,2.38,0,2.25,0,4.51,0,6.76,0,.83.31,1.13,1.15,1.14q1.32.01,1.32-1.32c0-1.26,0-2.53,0-3.79,0-.3-.09-.71.4-.7.47.01.38.43.38.73,0,4.29,0,8.58,0,12.86,0,1.11.24,1.35,1.36,1.35,1.68,0,1.77-.09,1.77-1.77,0-1.78,0-3.56,0-5.34,0-.3-.03-.66.38-.68.42-.01.4.35.4.65,0,2.04.02,4.07,0,6.11-.01,1.15-.71,1.82-1.87,1.84-.32,0-.63,0-.95,0-1.19-.02-1.87-.7-1.87-1.89,0-2.21-.02-4.43.01-6.64,0-.51-.15-.66-.63-.6-.27.03-.55.01-.83,0-1.09-.02-1.8-.69-1.82-1.77-.02-2.37-.04-4.74,0-7.11.03-1.77,1.32-2.97,3.1-2.98,4.49-.01,8.97,0,13.46,0,1.2,0,1.82.69,1.82,1.99,0,1.33-.62,2.04-1.82,2.05-1.32.01-2.65.04-3.97-.02-.64-.03-.73.2-.73.76.03,2.39.01,4.78.01,7.17h.09Z"/>
      <path class="cls-1" d="m.8,21.86c0,1.26,0,2.53,0,3.79,0,1.12.6,1.71,1.73,1.71,2.49,0,4.98,0,7.47,0,1.11,0,1.72-.62,1.73-1.73,0-1.58,0-3.16,0-4.74,0-.29-.05-.66.39-.66.43,0,.4.36.4.65,0,1.6,0,3.2,0,4.8,0,.82-.29,1.52-.97,2-.26.18-.37.38-.34.68.02.14,0,.28,0,.41-.02.99-.37,1.33-1.39,1.33-1.01,0-1.39-.34-1.36-1.34.02-.51-.15-.63-.63-.61-1.12.04-2.25.02-3.38,0-.33,0-.43.1-.44.43-.03,1.32-.59,1.75-1.89,1.48-.56-.12-.86-.5-.83-1.06.03-.65-.04-1.18-.65-1.62C.16,27.04,0,26.4,0,25.75c0-2.57,0-5.14,0-7.7,0-1.73,1.24-2.99,2.96-3.05q.94-.03.94-.99c0-.2,0-.4,0-.59.03-.49.08-.9-.65-1.02-.61-.1-.83-.87-.64-1.77.11-.52.52-.84,1.13-.84,1.68,0,3.36-.01,5.04,0,.69,0,1.05.35,1.12,1.04.1.96-.16,1.55-.84,1.65-.4.06-.47.22-.45.56.02.43.04.87,0,1.3-.05.51.11.7.65.66,1.05-.08,1.93.3,2.6,1.13.78.96.69,2.1.62,3.22-.01.2-.17.31-.38.3-.23,0-.36-.15-.37-.38-.01-.39,0-.79,0-1.18-.02-1.33-.88-2.29-2.19-2.31-2.19-.04-4.39-.04-6.58,0-1.3.03-2.14.96-2.15,2.27-.01,1.26,0,2.53,0,3.79Zm5.56-9.33c-.49,0-.88.01-1.27,0-.27-.01-.39.06-.39.36.02.57.02,1.14,0,1.71,0,.31.11.42.41.41.59-.02,1.18,0,1.77,0,.93,0,.94,0,.93-.93,0-.49.16-1.13-.09-1.42-.29-.35-.96-.06-1.37-.12Zm-.14-.8h0c.81,0,1.62-.02,2.42,0,.42,0,.48-.21.48-.56,0-.36-.03-.61-.49-.61-1.58.02-3.15.02-4.73,0-.45,0-.51.22-.51.59,0,.38.09.59.52.57.77-.02,1.54,0,2.31,0Zm3.63,16.45c-.38-.05-.64-.03-.61.49.02.45.09.69.62.68.51,0,.55-.25.58-.67.03-.49-.19-.58-.58-.5Zm-7.16,0c-.4-.07-.64,0-.6.5.03.4.05.67.57.67.49,0,.59-.2.6-.64.01-.45-.12-.63-.56-.53Z"/>
      <path class="cls-1" d="m22.54,7.31c-1.99,0-3.66-1.66-3.66-3.66C18.88,1.67,20.57,0,22.55,0c2,0,3.65,1.66,3.65,3.67,0,2.01-1.64,3.64-3.66,3.65Zm0-.81c1.6,0,2.85-1.25,2.85-2.84,0-1.58-1.28-2.87-2.85-2.87-1.57,0-2.87,1.3-2.86,2.86,0,1.59,1.27,2.85,2.86,2.85Z"/>
      <path class="cls-1" d="m2.61,22.38c0-.79,0-1.58,0-2.37.02-1.02.68-1.73,1.7-1.76,1.3-.03,2.61-.03,3.91,0,.99.03,1.66.69,1.69,1.71.04,1.68.01,3.36.01,5.04,0,.28-.07.55-.4.55-.33,0-.39-.26-.39-.55,0-1.58,0-3.16,0-4.74,0-.91-.29-1.2-1.21-1.2-1.11,0-2.21,0-3.32,0-.91,0-1.19.29-1.19,1.21,0,1.46,0,2.92,0,4.38,0,.14,0,.28,0,.41-.02.26-.11.49-.41.48-.28-.01-.39-.22-.39-.5,0-.89,0-1.78,0-2.67Z"/>
    </g>
  </g>
</svg>