<?xml version="1.0" encoding="UTF-8"?>
<svg id="Layer_2" data-name="Layer 2" xmlns="http://www.w3.org/2000/svg" viewBox="0 0 14.47 14.53">
  <defs>
    <style>
      .cls-1 {
        fill: #9ed8e5;
      }

      .cls-1, .cls-2 {
        stroke-width: 0px;
      }

      .cls-2 {
        fill: #1ca8cb;
      }
    </style>
  </defs>
  <g id="Layer_1-2" data-name="Layer 1">
    <g>
      <g>
        <path class="cls-1" d="m3.57,8.82c.39.84.58,1.71.72,2.59.12.81.18,1.63.21,2.46,0,.12.04.15.16.15.96,0,1.93,0,2.89,0,.13,0,.16-.04.16-.16,0-2.27,0-4.54,0-6.81,0-.4.24-.63.62-.63,1.47.01,2.93,0,4.4,0,.4,0,.59.2.59.6,0,2.27,0,4.55,0,6.82,0,.13.03.17.16.17.47,0,.5-.03.5-.5,0-3.07,0-6.15,0-9.22,0-.05,0-.1,0-.15.02-.13.12-.22.25-.22.13,0,.23.08.25.21,0,.05,0,.1,0,.14,0,3.13,0,6.25,0,9.38,0,.56-.3.86-.86.86-4.25,0-8.5,0-12.75,0-.56,0-.86-.31-.86-.86C0,9.4,0,5.14,0,.87,0,.31.3,0,.87,0,5.12,0,9.37,0,13.62,0c.54,0,.85.31.85.84,0,.43,0,.86,0,1.29,0,.13-.07.22-.19.26-.12.03-.22-.02-.28-.12-.04-.06-.03-.12-.03-.18,0-.41,0-.82,0-1.23,0-.25-.09-.34-.34-.34-3.18,0-6.35,0-9.53,0-.12,0-.15.03-.15.15.03.63.05,1.27.04,1.9,0,.11.03.14.14.14.49,0,.98,0,1.47,0,.37,0,.58.2.58.57,0,1.66,0,3.31,0,4.97,0,.38-.2.58-.58.58-.61,0-1.23,0-1.84,0-.05,0-.1,0-.17,0Zm4.63,1.64h0c0,1.13,0,2.26,0,3.4,0,.12.02.16.16.16,1.42,0,2.84,0,4.25,0,.14,0,.17-.03.17-.17,0-2.25,0-4.5,0-6.75,0-.12-.02-.16-.16-.16-1.42,0-2.85,0-4.27,0-.13,0-.16.03-.16.16,0,1.12,0,2.25,0,3.37Zm-7.69.7c0,.84,0,1.68,0,2.53,0,.25.09.33.33.33,1,0,1.99,0,2.99,0,.12,0,.15-.03.15-.15-.04-1.03-.12-2.06-.32-3.07-.13-.65-.31-1.29-.62-1.88-.04-.07-.07-.12-.17-.13-.74-.06-1.48-.15-2.21-.3-.13-.03-.15,0-.15.13,0,.85,0,1.69,0,2.54ZM3.47,2.25c0-.42,0-1.03-.04-1.65,0-.08-.03-.1-.11-.09-.15,0-.3,0-.45,0-.1,0-.12.03-.12.12,0,.7-.03,1.39-.11,2.08-.1.83-.25,1.64-.6,2.41-.31.69-.74,1.28-1.47,1.59-.07.03-.07.09-.07.14,0,.32,0,.64,0,.96,0,.1.04.13.13.15.42.07.83.14,1.24.2.06,0,.11.01.17-.02.43-.26.74-.61.9-1.09.24-.72.35-1.46.42-2.22.08-.79.1-1.59.1-2.58ZM.51,6.18c.22-.11.37-.24.52-.4.34-.37.56-.82.72-1.3.29-.84.4-1.71.46-2.59.03-.42.04-.84.04-1.26,0-.06.02-.13-.08-.13-.46,0-.93,0-1.39,0-.15,0-.24.1-.25.25,0,.06,0,.13,0,.19,0,1.69,0,3.39,0,5.08,0,.04,0,.09,0,.15Zm2.27,2.08c.12.01.21.03.31.03.82,0,1.65,0,2.47.01.1,0,.1-.05.1-.12,0-.92,0-1.84,0-2.76,0-.09-.02-.13-.12-.12-.53,0-1.06,0-1.58,0-.09,0-.12.03-.13.12-.03.23-.06.46-.11.69-.16.77-.32,1.55-.93,2.15Zm1.98-3.47c.26,0,.52,0,.78,0,.07,0,.11-.01.11-.09,0-.46,0-.93,0-1.39,0-.07-.03-.09-.09-.09-.5,0-1,0-1.49,0-.07,0-.09.02-.09.09-.02.46-.03.92-.08,1.38-.01.1.03.11.11.11.25,0,.5,0,.75,0Z"/>
        <path class="cls-1" d="m8.36,3.44c0-1.21.93-2.12,2.16-2.11,1.17.01,2.1,1.01,2.06,2.18-.03,1.04-.87,2.02-1.99,2.04-1.32.02-2.24-.88-2.24-2.1Zm.55.35s0,.02,0,.03c.1.54.67,1.1,1.2,1.19.08.01.1-.02.1-.09.01-.16.12-.26.26-.25.14,0,.23.1.24.25,0,.09.03.11.11.09.55-.11,1.07-.63,1.19-1.17.02-.08,0-.11-.08-.11-.19-.01-.28-.11-.27-.27,0-.15.11-.24.29-.24.09,0,.1-.03.08-.11-.16-.63-.55-1.04-1.18-1.22-.1-.03-.14,0-.14.1,0,.14-.12.23-.25.23-.13,0-.24-.09-.25-.23,0-.11-.04-.13-.14-.1-.61.18-1,.56-1.17,1.17-.03.11-.03.16.11.16.12,0,.21.07.24.19.03.13-.02.23-.14.29-.05.02-.1.02-.16.03-.04,0-.08,0-.06.06Z"/>
        <path class="cls-1" d="m8.97,10.55c.15,0,.26.12.25.26,0,.14-.11.25-.25.25-.15,0-.26-.11-.26-.25,0-.15.11-.26.26-.25Z"/>
        <path class="cls-1" d="m10.23,3.15c0-.14,0-.25,0-.37,0-.14.11-.24.24-.24.13,0,.23.09.24.24,0,.01,0,.03,0,.04-.08.43.09.77.38,1.07.05.05.09.11.13.17.07.11.05.24-.05.32-.09.07-.24.07-.31-.03-.2-.25-.39-.5-.58-.76-.1-.15-.04-.33-.05-.46Z"/>
      </g>
      <g>
        <path class="cls-2" d="m3.57,8.82c.39.84.58,1.71.72,2.59.12.81.18,1.63.21,2.46,0,.12.04.15.16.15.96,0,1.93,0,2.89,0,.13,0,.16-.04.16-.16,0-2.27,0-4.54,0-6.81,0-.4.24-.63.62-.63,1.47.01,2.93,0,4.4,0,.4,0,.59.2.59.6,0,2.27,0,4.55,0,6.82,0,.13.03.17.16.17.47,0,.5-.03.5-.5,0-3.07,0-6.15,0-9.22,0-.05,0-.1,0-.15.02-.13.12-.22.25-.22.13,0,.23.08.25.21,0,.05,0,.1,0,.14,0,3.13,0,6.25,0,9.38,0,.56-.3.86-.86.86-4.25,0-8.5,0-12.75,0-.56,0-.86-.31-.86-.86C0,9.4,0,5.14,0,.87,0,.31.3,0,.87,0,5.12,0,9.37,0,13.62,0c.54,0,.85.31.85.84,0,.43,0,.86,0,1.29,0,.13-.07.22-.19.26-.12.03-.22-.02-.28-.12-.04-.06-.03-.12-.03-.18,0-.41,0-.82,0-1.23,0-.25-.09-.34-.34-.34-3.18,0-6.35,0-9.53,0-.12,0-.15.03-.15.15.03.63.05,1.27.04,1.9,0,.11.03.14.14.14.49,0,.98,0,1.47,0,.37,0,.58.2.58.57,0,1.66,0,3.31,0,4.97,0,.38-.2.58-.58.58-.61,0-1.23,0-1.84,0-.05,0-.1,0-.17,0Zm4.63,1.64h0c0,1.13,0,2.26,0,3.4,0,.12.02.16.16.16,1.42,0,2.84,0,4.25,0,.14,0,.17-.03.17-.17,0-2.25,0-4.5,0-6.75,0-.12-.02-.16-.16-.16-1.42,0-2.85,0-4.27,0-.13,0-.16.03-.16.16,0,1.12,0,2.25,0,3.37Zm-7.69.7c0,.84,0,1.68,0,2.53,0,.25.09.33.33.33,1,0,1.99,0,2.99,0,.12,0,.15-.03.15-.15-.04-1.03-.12-2.06-.32-3.07-.13-.65-.31-1.29-.62-1.88-.04-.07-.07-.12-.17-.13-.74-.06-1.48-.15-2.21-.3-.13-.03-.15,0-.15.13,0,.85,0,1.69,0,2.54ZM3.47,2.25c0-.42,0-1.03-.04-1.65,0-.08-.03-.1-.11-.09-.15,0-.3,0-.45,0-.1,0-.12.03-.12.12,0,.7-.03,1.39-.11,2.08-.1.83-.25,1.64-.6,2.41-.31.69-.74,1.28-1.47,1.59-.07.03-.07.09-.07.14,0,.32,0,.64,0,.96,0,.1.04.13.13.15.42.07.83.14,1.24.2.06,0,.11.01.17-.02.43-.26.74-.61.9-1.09.24-.72.35-1.46.42-2.22.08-.79.1-1.59.1-2.58ZM.51,6.18c.22-.11.37-.24.52-.4.34-.37.56-.82.72-1.3.29-.84.4-1.71.46-2.59.03-.42.04-.84.04-1.26,0-.06.02-.13-.08-.13-.46,0-.93,0-1.39,0-.15,0-.24.1-.25.25,0,.06,0,.13,0,.19,0,1.69,0,3.39,0,5.08,0,.04,0,.09,0,.15Zm2.27,2.08c.12.01.21.03.31.03.82,0,1.65,0,2.47.01.1,0,.1-.05.1-.12,0-.92,0-1.84,0-2.76,0-.09-.02-.13-.12-.12-.53,0-1.06,0-1.58,0-.09,0-.12.03-.13.12-.03.23-.06.46-.11.69-.16.77-.32,1.55-.93,2.15Zm1.98-3.47c.26,0,.52,0,.78,0,.07,0,.11-.01.11-.09,0-.46,0-.93,0-1.39,0-.07-.03-.09-.09-.09-.5,0-1,0-1.49,0-.07,0-.09.02-.09.09-.02.46-.03.92-.08,1.38-.01.1.03.11.11.11.25,0,.5,0,.75,0Z"/>
        <path class="cls-2" d="m8.36,3.44c0-1.21.93-2.12,2.16-2.11,1.17.01,2.1,1.01,2.06,2.18-.03,1.04-.87,2.02-1.99,2.04-1.32.02-2.24-.88-2.24-2.1Zm.55.35s0,.02,0,.03c.1.54.67,1.1,1.2,1.19.08.01.1-.02.1-.09.01-.16.12-.26.26-.25.14,0,.23.1.24.25,0,.09.03.11.11.09.55-.11,1.07-.63,1.19-1.17.02-.08,0-.11-.08-.11-.19-.01-.28-.11-.27-.27,0-.15.11-.24.29-.24.09,0,.1-.03.08-.11-.16-.63-.55-1.04-1.18-1.22-.1-.03-.14,0-.14.1,0,.14-.12.23-.25.23-.13,0-.24-.09-.25-.23,0-.11-.04-.13-.14-.1-.61.18-1,.56-1.17,1.17-.03.11-.03.16.11.16.12,0,.21.07.24.19.03.13-.02.23-.14.29-.05.02-.1.02-.16.03-.04,0-.08,0-.06.06Z"/>
        <path class="cls-2" d="m8.97,10.55c.15,0,.26.12.25.26,0,.14-.11.25-.25.25-.15,0-.26-.11-.26-.25,0-.15.11-.26.26-.25Z"/>
        <path class="cls-2" d="m10.23,3.15c0-.14,0-.25,0-.37,0-.14.11-.24.24-.24.13,0,.23.09.24.24,0,.01,0,.03,0,.04-.08.43.09.77.38,1.07.05.05.09.11.13.17.07.11.05.24-.05.32-.09.07-.24.07-.31-.03-.2-.25-.39-.5-.58-.76-.1-.15-.04-.33-.05-.46Z"/>
      </g>
    </g>
  </g>
</svg>