<?xml version="1.0" encoding="UTF-8"?>
<svg id="Layer_2" data-name="Layer 2" xmlns="http://www.w3.org/2000/svg" viewBox="0 0 11.88 9.91">
  <defs>
    <style>
      .cls-1 {
        fill: #1ca8cb;
        stroke-width: 0px;
      }
    </style>
  </defs>
  <g id="Layer_1-2" data-name="Layer 1">
    <g>
      <path class="cls-1" d="m11.08,4.04c0,1.59,0,3.12,0,4.65,0,.22.07.29.28.28.16,0,.37-.09.46.09.11.23.07.49.02.73-.04.17-.21.12-.33.12-.86,0-1.73,0-2.59,0-2.76,0-5.52,0-8.28,0-.27,0-.48.01-.47-.37.02-.56,0-.58.44-.57.22,0,.28-.08.28-.29,0-.95-.01-1.9,0-2.84,0-.23-.09-.27-.29-.27-.19,0-.45.11-.55-.11-.11-.23.16-.34.27-.49.21-.28.46-.54.68-.82.12-.15.25-.29.47-.26.14.02.18-.06.18-.19,0-.43,0-.85,0-1.28,0-.21-.13-.17-.26-.19-.27-.03-.34-.16-.16-.36.31-.35.65-.69.97-1.04.13-.14.29-.13.46-.13,1.39,0,2.77-.02,4.16.01.42,0,.7-.12.92-.45.16-.24.35-.38.57-.06.09.13.23.1.36.1.73,0,1.47,0,2.2,0,.24,0,.42.04.37.32-.04.24.2.66-.34.64-.19,0-.25.07-.24.25,0,.4,0,.81,0,1.21,0,.14.06.24.15.34.2.23.4.47.58.72.09.12.29.24.13.42-.16.17-.28-.03-.42-.14Zm-.37,2.15c0-.81,0-1.61,0-2.42,0-.16-.04-.29-.15-.42-.79-.9-1.58-1.79-2.36-2.7-.16-.18-.23-.15-.37,0-.76.88-1.52,1.75-2.29,2.62-.15.17-.21.35-.21.57,0,1.34,0,2.68,0,4.01,0,.34-.15.78.06,1,.23.23.67.04,1.02.08.25.03.33-.06.32-.31-.02-.69-.01-1.37,0-2.06,0-.45.25-.71.7-.73.22-.01.45,0,.67,0,.65,0,.88.23.89.87,0,.64.01,1.28,0,1.92,0,.26.08.33.33.31.35-.02.71-.02,1.07,0,.28.02.33-.09.33-.35-.02-.8,0-1.61,0-2.42Zm-7.6-.63c-.53,0-1.07,0-1.6,0-.19,0-.28.04-.28.25,0,.96,0,1.92,0,2.88,0,.2.06.27.26.27,1.07,0,2.13,0,3.2,0,.19,0,.27-.04.27-.26,0-.96,0-1.92,0-2.88,0-.2-.06-.27-.26-.26-.53.01-1.07,0-1.6,0Zm3.99,2.07c0,.34,0,.69,0,1.03,0,.21.05.3.27.29.32-.02.64-.01.96,0,.22,0,.29-.07.29-.29-.01-.47,0-.95,0-1.42,0-1.13.1-1.03-1.07-1.03-.02,0-.05,0-.07,0-.24.01-.37.14-.37.38,0,.34,0,.69,0,1.03ZM.58,5.19c.24,0,.39,0,.54,0,1.18,0,2.36,0,3.54,0,.13,0,.3.06.3-.18,0-.3,0-.6,0-.99-.18.25-.35.25-.53.25-.92,0-1.84,0-2.76,0-.15,0-.3-.02-.41.13-.19.25-.41.49-.67.8ZM1.8,1.8s.06.04.08.04c1.42,0,2.84,0,4.26,0,.09,0,.17,0,.23-.07.19-.22.38-.44.58-.67-.15-.09-.28-.05-.4-.05-1.16,0-2.32.05-3.48-.02-.66-.04-.93.35-1.26.76Zm4.16.42c-1.31,0-2.55,0-3.78,0-.07,0-.15,0-.16.09-.01.14.1.11.17.11.56,0,1.11,0,1.67,0,.88,0,.75-.1.77.79,0,.26-.09.36-.35.35-.65-.01-1.3,0-1.96,0-.12,0-.32-.09-.31.16,0,.21.18.15.3.15.69,0,1.37,0,2.06,0,.09,0,.2.02.27-.06.43-.51.86-1.03,1.33-1.59Zm.03,7.32c1.44,0,2.89,0,4.33,0,.32,0,.64,0,.96,0,.08,0,.18.03.19-.09.01-.16-.12-.11-.2-.12-.05,0-.09,0-.14,0-3.41,0-6.82,0-10.22,0-.07,0-.14,0-.21,0-.07,0-.15,0-.14.11,0,.1.08.1.15.1.08,0,.17,0,.25,0,1.68,0,3.36,0,5.04,0ZM3.14,2.8c-.29,0-.59,0-.88,0-.14,0-.26,0-.26.19,0,.19.1.2.25.2.58,0,1.15,0,1.73,0,.15,0,.28.01.28-.21,0-.21-.13-.18-.26-.18-.28,0-.56,0-.85,0Zm6.13-1.48c.31.35.61.7.94,1.07.15-1.12.05-1.23-.87-1.13,0,0-.02.01-.07.06Zm-.52-.67c.06.2.17.22.31.22.52,0,1.04,0,1.56,0,.08,0,.21.03.2-.12,0-.12-.12-.1-.19-.1-.62,0-1.23,0-1.88,0Z"/>
      <path class="cls-1" d="m7.92,5.56c-.33,0-.66,0-.99,0-.19,0-.31-.08-.27-.27.05-.26-.21-.64.27-.76.09-.02.06-.17.06-.26,0-.37,0-.73,0-1.1,0-.22.08-.33.32-.32.4.01.8,0,1.21,0,.23,0,.32.09.31.32-.01.31,0,.62,0,.92,0,.21-.1.46.29.51.2.02.12.28.12.43,0,.53,0,.53-.52.53-.26,0-.52,0-.78,0Zm-.57-1.71c0,.13.01.26,0,.39-.03.25.07.32.32.32.78,0,.78,0,.78-.81,0-.02,0-.05,0-.07q0-.46-.45-.46-.64,0-.64.63Zm.6,1.08h0c-.25,0-.49,0-.74,0-.09,0-.2-.01-.19.13,0,.12.09.12.17.12.49,0,.99,0,1.48,0,.08,0,.17,0,.18-.12,0-.14-.09-.14-.19-.14-.23,0-.47,0-.7,0Z"/>
      <path class="cls-1" d="m1.63,7.28c0-.34,0-.68,0-1.03,0-.21.09-.3.3-.3,1.04,0,.82-.08.84.77,0,.51,0,1.02,0,1.52,0,.24-.09.34-.33.34-.94,0-.8.05-.81-.75,0-.19,0-.38,0-.57Zm.37-.01c0,.25,0,.5,0,.75,0,.16.08.2.22.2.14,0,.18-.07.18-.2,0-.5,0-1,0-1.49,0-.13-.04-.2-.18-.2-.14,0-.23.03-.22.2,0,.25,0,.5,0,.75Z"/>
      <path class="cls-1" d="m3.18,7.26c0-.33,0-.66,0-.99,0-.23.09-.32.31-.32,1,0,.81-.07.83.79,0,.5,0,.99,0,1.49,0,.26-.1.36-.35.36-.92,0-.78.05-.79-.77,0-.19,0-.38,0-.57Zm.77,0c0-.25,0-.5,0-.75,0-.16-.07-.2-.21-.2-.14,0-.19.06-.19.19,0,.5,0,.99,0,1.49,0,.16.07.21.21.2.14,0,.19-.06.19-.19,0-.25,0-.5,0-.75Z"/>
    </g>
  </g>
</svg>