<?xml version="1.0" encoding="UTF-8"?>
<svg id="Layer_1" data-name="Layer 1" xmlns="http://www.w3.org/2000/svg" viewBox="0 0 20 19.9">
  <defs>
    <style>
      .cls-1 {
        fill: #1ca8cb;
        stroke-width: 0px;
      }
    </style>
  </defs>
  <path class="cls-1" d="m9.97,19.89c-3,0-6.01-.02-9.01.01-.72,0-1.03-.2-.94-.94.03-.27.03-.55,0-.83-.06-.62.21-.88.81-.78.66.1.77-.24.76-.82-.03-2.23-.04-4.46,0-6.69.01-.67-.21-.89-.85-.82-.23.03-.53.09-.65-.21-.11-.28.14-.46.29-.64C2.56,5.58,4.74,2.99,6.91.38c.4-.48.69-.53,1.09-.01.72.91,1.5,1.77,2.21,2.67.3.38.65.54,1.07.4.44-.14.23-.57.24-.86.04-1.81-.24-1.56,1.59-1.58,1.14-.01,1.14,0,1.14,1.11,0,.25.02.5,0,.74-.04.46.14.69.61.61.67-.12,1.05.23,1.44.71,1.07,1.33,2.19,2.62,3.28,3.94.17.2.46.39.34.7-.13.33-.48.23-.73.21-.56-.05-.77.14-.76.73.03,2.29.03,4.57,0,6.86,0,.58.18.83.76.74.7-.11.83.27.82.86-.04,1.94.15,1.65-1.6,1.66-2.81.01-5.62,0-8.43,0Zm.02-10.85c-2.37,0-4.73,0-7.1,0-.44,0-.72.04-.71.6.03,2.37.02,4.73,0,7.1,0,.45.14.63.61.63,3.05-.02,6.11-.02,9.16,0,.47,0,.63-.16.62-.62-.02-1.21-.03-2.42,0-3.63.04-1.4.94-2.29,2.2-2.26,1.27.03,2.1.95,2.11,2.35.01,1.16,0,2.31,0,3.47,0,.31-.09.68.45.69.52.01.48-.33.48-.66,0-2.31-.02-4.62.01-6.94,0-.59-.2-.74-.76-.73-2.37.03-4.73.01-7.1.01Zm3.83-.65c-.16-.24-.23-.39-.33-.51-1.84-2.19-3.7-4.37-5.5-6.59-.47-.58-.69-.42-1.08.04-1.79,2.16-3.6,4.3-5.4,6.46-.13.15-.35.28-.27.59h12.57Zm-3.72,9.57c-2.86,0-5.73,0-8.59,0-.48,0-.92-.07-.9.68.02.68.39.66.86.66,5.7,0,11.4,0,17.1,0,.47,0,.85.03.86-.66.02-.75-.42-.68-.9-.68-2.81,0-5.62,0-8.42,0Zm6.21-3.04s0,0,0,0c0-.63.03-1.26,0-1.89-.05-.93-.72-1.6-1.56-1.59-.81,0-1.5.63-1.53,1.53-.05,1.29-.02,2.58-.02,3.87,0,.31.09.48.46.53,2.53.32,2.66.22,2.66-2.28v-.16Zm1.21-8.14c-.36-.79-.79-1.16-1.54-1.05-.38.05-.77.02-1.16,0-.28-.01-.71.13-.7-.33,0-.38.41-.26.67-.27.42-.02.84,0,1.27,0-.25-.48-.37-1.01-.87-1.02-1.28-.04-2.56-.01-4.06-.01,1.26,1.5,2.38,2.84,3.51,4.18.06.08.19.14.28.14,1.3,0,2.6,0,4.01,0-.4-.73-.79-1.16-1.56-1.04-.4.06-.83.02-1.24,0-.26,0-.63.09-.62-.33,0-.36.36-.26.59-.27.43-.02.87,0,1.42,0Zm-3.87-4.22c.06-.56.06-.98-.76-.98-.79,0-.73.43-.73.94,0,.56-.04.99.78.98.78-.01.78-.4.72-.94Z"/>
  <path class="cls-1" d="m7.45,14.77c-.83,0-1.65-.02-2.48,0-.54.02-.71-.2-.72-.73-.05-2.21-.07-2.21,2.13-2.21,1.18,0,2.37.01,3.55,0,.53,0,.73.18.72.72-.08,2.62.45,2.15-2.13,2.21-.36,0-.72,0-1.07,0,0,0,0,0,0,0Zm-1.44-2.34c-.33.11-.87-.24-1.11.28-.38.83.05,1.45.97,1.45.22,0,.44-.01.65,0,.44.03.63-.12.65-.6.04-1.11.04-1.13-1.16-1.13Zm2.94,1.73c.27-.15.83.27,1.06-.3.36-.9-.03-1.42-1.01-1.43-.27,0-.55,0-.82.01-.26,0-.36.14-.4.41-.17,1.12-.03,1.31,1.18,1.31Z"/>
  <path class="cls-1" d="m7.45,7.08c-.66,0-1.32-.01-1.97,0-.5.01-.61-.23-.56-.67.13-1.19,1.23-2.16,2.51-2.18,1.28-.02,2.39.91,2.56,2.11.07.52-.07.77-.64.74-.63-.03-1.26,0-1.89,0Zm-.05-.61h0c.49,0,.99,0,1.48,0,.36,0,.53-.1.35-.48-.35-.74-.94-1.14-1.75-1.15-.82,0-1.41.39-1.78,1.11-.16.31-.12.52.31.51.47-.01.93,0,1.4,0Z"/>
</svg>