<?xml version="1.0" encoding="UTF-8"?>
<svg id="Layer_2" data-name="Layer 2" xmlns="http://www.w3.org/2000/svg" width="197" height="56" viewBox="0 0 1363.1 380.99">
  <defs>
    <style>
      .cls-1 {
        fill: #fff;
      }

      .cls-1, .cls-2 {
        stroke-width: 0px;
      }

      .cls-2 {
        fill: #113d48;
      }
    </style>
  </defs>
  <g id="Layer_1-2" data-name="Layer 1">
    <g>
      <path class="cls-1" d="m803.17,208.97h-26.13l-43.71-84.74v84.74h-26.13V70.93h26.13l43.71,85.52v-85.52h26.13v138.04Z"/>
      <path class="cls-1" d="m900.29,77.86c8.3,6.05,14.85,14.45,19.64,25.19,4.79,10.74,7.18,22.88,7.18,36.41s-2.42,25.71-7.26,36.51c-4.84,10.81-11.41,19.23-19.71,25.29-8.3,6.05-17.5,9.08-27.58,9.08s-19.28-3.03-27.58-9.08c-8.31-6.05-14.88-14.48-19.71-25.29-4.84-10.8-7.26-22.97-7.26-36.51s2.42-25.68,7.26-36.41c4.84-10.74,11.41-19.13,19.71-25.19,8.3-6.05,17.5-9.08,27.58-9.08s19.43,3.03,27.74,9.08Zm-48.14,32.61c-5.04,7.1-7.56,16.76-7.56,29s2.52,21.74,7.56,28.9c5.04,7.16,11.84,10.74,20.4,10.74s15.23-3.58,20.33-10.74c5.09-7.16,7.64-16.79,7.64-28.9s-2.52-21.74-7.56-28.9c-5.04-7.16-11.84-10.74-20.4-10.74s-15.36,3.55-20.4,10.64Z"/>
      <path class="cls-1" d="m961.95,70.93l26.44,103.87,26.44-103.87h27.97l-37.59,138.04h-33.77l-37.44-138.04h27.97Z"/>
      <path class="cls-1" d="m1119.81,183.79h-40.5l-6.72,25.19h-27.51l39.58-137.07h30.11l39.58,137.07h-27.81l-6.72-25.19Zm-6.72-25.38l-13.45-50.77-13.6,50.77h27.05Z"/>
      <path class="cls-1" d="m1219.91,208.97l-23.38-52.13h-5.96v52.13h-26.13V70.93h44.62c8.56,0,15.79,1.89,21.7,5.66,5.91,3.78,10.34,8.95,13.3,15.52,2.95,6.57,4.43,14.09,4.43,22.55,0,10.02-2.17,18.55-6.5,25.58-4.33,7.03-10.62,11.85-18.87,14.45l25.67,54.28h-28.88Zm-29.34-74.98h16.2c5.2,0,9.02-1.46,11.46-4.39,2.45-2.93,3.67-7.25,3.67-12.98s-1.25-9.76-3.74-12.89c-2.5-3.12-6.29-4.69-11.38-4.69h-16.2v34.95Z"/>
      <path class="cls-1" d="m1328.56,183.79h-40.5l-6.72,25.19h-27.51l39.58-137.07h30.11l39.58,137.07h-27.81l-6.72-25.19Zm-6.72-25.38l-13.45-50.77-13.6,50.77h27.05Z"/>
    </g>
    <g>
      <path class="cls-1" d="m709.24,299.33v33.17h-11.06v-77.39h11.06v33.17h11.06v-33.17h11.06v77.39h-11.06v-33.17h-11.06Z"/>
      <path class="cls-1" d="m793.49,315.91v-44.22c0-11.06,5.53-16.58,16.58-16.58s16.58,5.53,16.58,16.58v44.22c0,11.06-5.53,16.58-16.58,16.58s-16.58-5.53-16.58-16.58Zm11.06-44.22v44.22c0,3.69,1.84,5.53,5.53,5.53s5.53-1.84,5.53-5.53v-44.22c0-3.68-1.84-5.53-5.53-5.53s-5.53,1.84-5.53,5.53Z"/>
      <path class="cls-1" d="m888.79,255.11h11.06v66.33h11.06v11.06h-22.11v-77.39Z"/>
      <path class="cls-1" d="m984.09,332.5h-11.06v-77.39h11.06v77.39Z"/>
      <path class="cls-1" d="m1046.22,255.11h16.58c11.06,0,16.58,5.53,16.58,16.58v44.22c0,11.06-5.53,16.58-16.58,16.58h-16.58v-77.39Zm11.06,11.06v55.28h5.53c3.68,0,5.53-1.84,5.53-5.53v-44.22c0-3.68-1.84-5.53-5.53-5.53h-5.53Z"/>
      <path class="cls-1" d="m1161.7,321.44h-12.71l-2.16,11.06h-11.28l15.04-77.39h9.51l15.04,77.39h-11.28l-2.16-11.06Zm-2.16-11.06l-4.2-21.78-4.2,21.78h8.4Z"/>
      <path class="cls-1" d="m1236.82,294.69l-14.32-39.58h11.72l8.13,22.5,8.13-22.5h11.72l-14.32,39.58v37.81h-11.06v-37.81Z"/>
      <path class="cls-1" d="m1321.07,315.91v-5.53h11.06v5.53c0,3.69,1.84,5.53,5.53,5.53s5.53-1.84,5.53-5.53v-11.06c0-3.68-1.84-5.53-5.53-5.53-11.06,0-16.58-5.53-16.58-16.58v-11.06c0-11.06,5.53-16.58,16.58-16.58s16.58,5.53,16.58,16.58v5.53h-11.06v-5.53c0-3.68-1.84-5.53-5.53-5.53s-5.53,1.84-5.53,5.53v11.06c0,3.69,1.84,5.53,5.53,5.53,11.06,0,16.58,5.53,16.58,16.58v11.06c0,11.06-5.53,16.58-16.58,16.58s-16.58-5.53-16.58-16.58Z"/>
    </g>
    <path class="cls-1" d="m5.85,206.53c7.9-16.79,20.99-28.92,35.55-39.66,13.78-10.16,28.9-18.06,44.51-24.95,3.57-1.57,7.11-3.26,10.75-4.71h0s.16-.06.16-.06c1.98-.79,4-1.49,6.06-2.07l21.01-7.17s-4.47,9.08-7.99,22.59c-1.42,5.58-2.85,11.16-4.24,16.75-.4,1.6-1.68,2.06-2.89,2.71-4.43,2.35-8.98,4.51-13.25,7.11-10.47,6.38-20.21,13.65-25.83,25-3.36,6.8-3.87,13.7.62,20.39,6.23,9.27,15.77,13.58,25.96,15.81,17.36,3.8,35.04,3.45,52.6,1.28,13.63-1.68,27.15-4.13,40.6-7.02,18.1-3.89,35.94-8.74,53.61-14.13,17.4-5.3,34.6-11.25,51.65-17.64,22.9-8.58,45.51-17.86,67.89-27.74,20.07-8.86,39.83-18.37,59.39-28.28,15.63-7.92,31.02-16.31,46.23-25.04,18.06-10.36,35.71-21.37,53.07-32.85,2.25-1.49,1.45-2.55-.05-3.62-2.35-1.68-4.84-3.16-7.2-4.83-1.36-.96-3.7-1.66-3.22-3.61.44-1.8,2.67-2.51,4.4-3.22.68-.28,1.48-.28,2.23-.39,5.38-.78,9.68,2.29,14.23,4.22,2.78,1.18,4.87,1.09,7.31-.63,11.44-8.05,20.85-18.35,31.18-27.63,1.37-1.23,1.58-2.61.27-4.3-5.62-7.29-11.65-14.09-19.67-18.89-9.46-5.66-18.84-11.46-28.24-17.21-.95-.58-2.25-1.04-2.05-2.41.18-1.2,1.36-1.66,2.37-2.24,2.93-1.68,5.89-1.79,9-.54,3.37,1.36,6.8,2.58,10.16,3.95,15.17,6.19,30.35,12.37,45.48,18.66,2.45,1.02,4.15.59,6.12-1.12,5.21-4.52,10.56-8.89,15.96-13.18C617.94,3.26,627.4-.21,638.14,0c2.7.06,3.63,1.35,2.98,3.87-2.37,9.17-6.21,17.57-13.58,23.84-6.11,5.19-12.38,10.2-18.76,15.06-1.54,1.17-2.02,2.18-1.85,4,.85,8.8,2.9,17.4,4.36,26.1,1.89,11.31,4.11,22.56,6.25,33.83.75,3.96-.6,7.08-3.2,9.98-1.77,1.97-2.71,1.83-3.58-.63-2.55-7.22-5.39-14.34-7.68-21.64-3.72-11.83-8.58-22.95-16.91-32.41-2.36-2.68-3.97-2.69-6.58-.81-10.66,7.68-21.36,15.3-32.14,22.8-2.2,1.53-2.87,3.18-2.44,5.72.75,4.47,1.28,8.99,1.9,13.48.48,3.49-1.35,6.06-3.55,8.37-1.41,1.48-2.87,2.04-3.86-.63-1.44-3.87-3.02-7.7-4.63-11.5-.66-1.57-1.23-3-3.31-.87-3.59,3.67-7.51,7.01-11.34,10.43-19.46,17.38-39.93,33.47-61.29,48.45-15.4,10.8-31.17,21.02-47.25,30.77-17.25,10.47-34.85,20.3-52.85,29.38-24.73,12.48-49.92,23.95-75.8,33.92-16.05,6.18-32.2,12.04-48.61,17.17-17.05,5.33-34.27,9.96-51.74,13.77-24.08,5.25-48.28,9.06-72.96,9.83-16.79.53-33.34-.28-49.8-3.9-13.91-3.06-26.82-8.11-38.24-16.67C9.73,262.76,1.68,251.23.23,236.08c-.98-10.26,1.19-20.15,5.61-29.55Z"/>
    <path class="cls-2" d="m350.83,16.96l.87.25.99.3,2.48.58h.02c1.2.2,2.33.7,3.58.7l-1.22-.32,1.11.25.64.13v-.06s.06.01.06.01c-.06-.04-.18-.08-1.72-.46l-4.6-1-1.07-.18-1.14-.2Z"/>
    <path class="cls-2" d="m347.37,16.1l-.11-.02-.12-.02-.11-.02.35.06Z"/>
    <path class="cls-2" d="m493.95,180.62c.14.17.13.47.42.51l.4-.1c.16-.04.73-.41.86-.71.13-.26.17-.27.37-.09.1.09.75.44,1.37.2q.27-.1.4.05l.19.13.13-.21c.06-.17.09-.23.33-.3,0,0,.37.05.56.54q.36,1.03.58.91l.28-.08s.13-.34.17-2.46c-.2-1.33-.43-2.64-.64-3.96q-.4-.21-.54-.19c-.24.11-.24.46-.56.49h-.38s-.04.02-.04.02c-.11.11-.14.18-.14.62-.03.55-.06.61-.2.78-.13.17-.16.26-.18.76-.02.3-.05.53-.16.56l-.57.11c-.3-.22-.2-.67-.51-.9l-.18.04c-.29.17-.21.56-.41.79l-.36.09q-.39.06-1.26-.32c.09.63.31,1.25.3,1.89.01.3-.24.49-.3.76l.08.07Z"/>
    <path class="cls-2" d="m505.69,203.89v.33s.02.44.02.44v.47s-.01-.91-.01-.91v-.46s-.07-2.67-.07-2.67l-.02-.22s0-.02,0-.03c-.03-.47-.06-.99-.09-1.48l.07,1.67-.02,3.22-.06,1.54-.29.5-.22.28c-.14.07-.29.13-.46.2l-.18,2.05v.37c-.16-.7-.35-1.4-.67-2.11-.1-1.83-.12-3.09-.15-4.35-.41-.36-.82-.99-1-1.5-.46-.56-.68-.5-.93-.43q-.06-1.75-.48-2.61c-.2-.04-.3,0-.41.01l-.02.68c.46,1.46,1.33,4.17.65,10.26-.52-1.94-1.21-8.72-1.21-8.77-.39.31-.77.93-.86,1.41-.55,1.26-.53,1.93-.5,2.58-.17.21-.38.49-.54.7-.37.19-.68.28-1,.34q-.69.78-.96,2.47c-.22-.15-.53-.35-.75-.49-.07-.55-.17-1.27-.24-1.82-.24.12-.55.29-.79.41-.16.24-.21.25-.25.26l-.53-1.03c-.34.39-.72.97-.95,1.43.16.24.34.57.49.81q0,1.86-.6,2.56c-.21-.16-.51-.37-.7-.52-.28-.05-.36-.04-.44-.02q.06,1.59-.27,2.67c-.56.83-.56,1.05-.55,1.27-.9,1.86-4.99,9.09-5,9.09-.2.05-.36.08-.52.1-.49-.14-1.19-.29-1.71-.37-.16.19-.36.45-.5.65-.32.41-.9.84-1.4,1-1.34,2.65-3.43,4.9-4.04,7.93-.19,1.54-.29,2.69-.37,3.84-.26.06-.6.14-.85.2-.49,1.17-.51,1.21-.61,5.39.43.34.91.86,1.24,1.29-.02.79-.09,1.21-.13,1.63-.26.08-.59.18-.85.25q-.41-.81-.19-2.67c-.53-.05-.63-.03-.73-.02l-.37.06q-2.1,1.55-2.38,2.47c.11.15.26.35.37.51.2.48.4,1.15.47,1.68-.06.49-.1.9-.16,1.31-.47.09-.96.18-1.43.26.11-.98.23-1.97.35-2.96q-1.17.04-2.28,1.1c-.42.3-.53.32-.66.34-.72.26-1.42.5-4.69,4.18.23.15.52.37.74.53.09,1.14,0,1.53-2.12,2.27.02-.55.08-1.28.14-1.83-1.71,0-1.85.19-2.94,1.62-1.47.49-2.29.62-3.11.77-4.47-1.46-4.67,4.73-7.53,6.51-.69.11-1.37.22-2.07.34-2.27,1.6-3.52,7.44-3.66,8.09q-.22,1.59.22,3.16c.5,1.85,1.72,5.43,1.72,5.43.11.25.25.59.38.85.26.06.59.14.84.2q2.02,4.36,2.12,4.38c-.23,1.18-.53,2.33-.84,3.49-.35.97-.46,1.4-.58,1.82-.1.26-.24.62-.36.88-.3.85-.38,1.12-.45,1.4-.23.82-.47,1.89-.45,3.68-.05.71-.1.9-.17,1.09-.31,1.54-.97,3-1.07,4.61l.33.31c-.02,1.53-.06,1.65-.72,3.76.18.2.41.46.58.66q-.14.86-.11,3.44l.27.07c-.03.54-.18,1.27-.35,1.79,1.35-.23,2.68-.46,3.98-.68.04.53.22,1.23.44,1.71.6-.09,1.11-.17,1.6-.26,1.85,7.13-3.89,12.21-5.01,18.54.7-.58,1.08-1.4,1.63-2.08.03.61.05,1.65-3.86,8.99q.78.92,3.67-.81c.31-.06.56-.11.79-.16-1.04,1.2-2.34,2.1-3.48,3.18-.77.93-1,1.23-1.25,1.52-.33.17-.4.17-.47.19-.37.47-.76.92-1.15,1.39l-.54.82c-.76,1.24-1.32,2.61-2.27,3.76.83-.21,1.07-.26,1.33-.32.32.28.4.26.5.24.28.03.51-.02.74-.07-.32.33-.64.67-.97,1q-1.96,1.88-2.53,2.62c-.66.67-.79.81-.94.95-.2.19-.47.42-.68.61.07.19.33.13.58.07.23-.19.54-.43.77-.6.78-.49.84-.5.9-.51-.45.44-.88.86-1.32,1.29q-2.11,1.93-2.71,2.34c.29-.52.27-.52.27-.51h0s-.01.01-.01.01h-.01c-.72.57-.87.71-1,.84-1.29,1.26-2.43,2.66-3.7,3.94-.97.83-1.83,1.55-2.7,2.26.2-.05.41-.09.59-.14-.35.39-.85.87-1.22,1.23-.3.23-.46.36-.62.48-1.23.96-2.57,1.79-3.84,2.71-.23.11-.56.27-.78.37-.33.25-.66.5-.97.73-.23.2-3.42,2.94-6.06,4.68-.59.44-.46.41-.34.38-.24.14-.53.34-.75.49-1.01.66-1.57,1.01-2.14,1.37-.73.44-.9.55-1.07.66q-.7.44-3.87,2.29c-.53.3-.7.41-.88.51-1.64.93-4.75,2.62-4.78,2.63-.72.33-1.11.54-1.51.75q-.68.27-3.12,1.56l.45-.07c.7-.32.73-.32.73-.32q1.55-.69,2.44-1.14c.19-.09.36-.19.55-.29.25-.11,4.45-2.23,8.05-4.33l.41-.24q.52-.28,2.32-1.37l.16-.06.61-.35.45-.31c1.32-.79,3.11-1.89,4.72-2.98.33-.22.42-.28.5-.34.75-.49,1.49-.97,2.21-1.47.56-.37.64-.43.73-.49,2.43-1.77,4.95-3.43,7.31-5.31.73-.61,1.21-.99,1.7-1.37-.66.47-1.31.96-1.98,1.41,1.17-.89,2.33-1.78,3.5-2.67.59-.46,1.07-.85,1.54-1.23l.15-.18c-.21.19-.5.41-.72.59-.39.33-.56.46-.71.59-.49.37-1.14.85-1.63,1.22q4.1-3.33,4.93-4.09c1.01-.89,1.85-1.61,2.65-2.32.18-.18.43-.43.61-.62.84-.78,1.3-1.19,1.74-1.6l.27-.07-4.12,3.68.19-.06c2.15-1.66,4.01-3.66,6.04-5.47q1.77-1.58,11.63-12.25c.19-.22.43-.5.64-.73.79-.89,1.06-1.21,1.32-1.52,2.94-4.11,6.24-7.95,9.27-12,.17-.25.25-.35.33-.46,1.13-1.67,4.76-7.45,4.79-7.5,1.12-1.74,2.05-3.6,3.06-5.4.22-.37.32-.54.42-.73.1-.17.22-.35.31-.53.9-1.33,1.02-1.58,1.48-2.53.09-.19.2-.37.3-.54l.17-.3c.12-.23.31-.55.42-.78.5-.79.62-1.01.75-1.24l.06-.16q.42-.73,1.21-2.37c.14-.27.19-.36.23-.46.15-.26.33-.59.47-.85.39-.69.48-.87.58-1.07l.12-.26c.25-.49.59-1.16.82-1.67,1.1-2.23,2.01-4.18,2.9-6.15,5.36-5.02,10.28-18.5,12.39-24.25.3-.86.42-1.31.56-1.77,1.25-4.07,2.88-8.02,3.86-12.18.18-.73.24-.95.28-1.15,1.24-4.74,1.25-7.07,1.26-7.09.12-.67.19-1.09.27-1.51q.4-.97,1.12-5.4c.05-.71,0-.68-.07-.64q.34-2.27.44-4.97-.04-1.1.25-3.3c-1.2-5.85,1.77-11.7.9-17.55l.05-1.06.4-.52.09,1.6-.07,2.61.2-1.25.29-2.62v.18q.09-.43.14-3.83v-1.03s0,.15,0,.15l-.02-.76Z"/>
    <path class="cls-2" d="m357.09,18.19c.24.06.36.09.55.14l.2.04c-.25-.06-.51-.13-.75-.18Z"/>
    <path class="cls-2" d="m346.56,15.97l.13.02.33.05-.44-.08.55.1.13.02-1.13-.2-.48-.09h-.05s-.03-.01-.03-.01h-.03c.17.03.33.07.51.1l-.97-.18-1.82-.31h-.11s-.02,0-.02,0l1.35.22,2.09.37Zm-.39-.08l.33.06-.38-.07h.06Z"/>
    <path class="cls-2" d="m353.07,17.33l.32.04-.84-.21h.09s-2.41-.51-2.41-.51l-2.36-.46-.51-.09,5.67,1.23h.03Z"/>
    <path class="cls-2" d="m505.69,203.76c0-.5-.02-.96-.03-1.39,0,.12,0,.24,0,.36l.02,1.02v.13s0-.12,0-.12Z"/>
    <path class="cls-2" d="m505.51,198.77c.03.55.06,1.1.08,1.62-.02-.54-.05-1.08-.08-1.62Z"/>
    <path class="cls-2" d="m505.42,197.29c.04.53.07,1.02.1,1.48-.05-.97-.11-1.95-.18-2.98,0-.19-.02-.37-.03-.56l-.1-1.33c-.02-.31-.04-.61-.07-.92,0,.13.02.26.02.39l-.09-1.12c.16,2.45.3,4.86.45,7.1l-.03-.81c-.03-.42-.05-.84-.07-1.25Z"/>
    <path class="cls-2" d="m501.33,166.49c.2-.23-.93-4.66-.93-4.7l-.03.12-.08.12.02.37c-.09-.19-.11-.42-.22-.61h-.06s-.03.06-.03.06l-.13-.07c-.04.14-.03.26.09.83q.1.53.16,1.36.29,4.05.24,4.19h-.15s-.33.13-.33.13l-.2.07c-.2.37-.06,3.53.01,4.34.55-.17,1.01-.33,1.38-.48.23-.23,0-1.97-.02-2.17-.08-.67-.08-.75-.03-.85l.09.06c.03-.07.06-1.08,0-1.42-.2-1.13-.42-2.53-.28-2.87.28.47.31,1.02.48,1.53Z"/>
    <path class="cls-2" d="m502.35,178.98h.02q.05-.14-.11-1.78c-.13.06-.28.11-.43.17l-.03.09c-.04.24,0,.49-.04.72l-.11.31s.08,1.02.2,1.52q.3,1.1.34,1.15l.13-.1c-.01-.43-.12-.82-.14-1.24,0-.17.05-.86.08-.91l.08.08Z"/>
    <path class="cls-2" d="m505.63,201.08c0-.21-.03-.47-.03-.69,0,.14.01.28.02.43,0,.08.01.18.02.26Z"/>
    <path class="cls-2" d="m358.38,18.5l-.55-.12c.13.03.27.06.38.09l.17.03Z"/>
    <path class="cls-2" d="m494.05,141.85l1.08,3.6,1.23,4.06.73,2.69.7,2.17.46,1.37v-.54s-.58-2.05-.58-2.05l-.17-1.01-.53-1.89-.31-1.31-.53-1.72-.46-1.58c-.29-.87-.59-1.75-.9-2.62l-.76-2.35-.63-1.89.13.26.45,1.2v-.04s-.61-1.64-.61-1.64c-.1-.24-.22-.52-.32-.77-.13.1-.26.19-.38.29.51,1.33.97,2.56,1.4,3.76Z"/>
    <path class="cls-2" d="m470.48,95.29c-3.13-4.42-4.6-6.5-7.33-9.75,2.38,2.97,4.59,5.91,6.63,8.79.16.22.31.45.47.67.08.1.14.19.22.29Z"/>
    <path class="cls-2" d="m416.19,44.14l.12.24c.6.4,1.2.81,1.82,1.22.33.23.67.46,1.03.69l.59.32.17-.09-2.55-1.75-1.18-.62Z"/>
    <path class="cls-2" d="m417.67,47.56l1,1.09-.42.24,1.82,1.36c1.18.86,2.31,1.73,3.46,2.61l2.67,1.97-.99-.25.73.96,1.31,1.21-.47.23-1.92-1.18-1.49-.53c-.76-.62-1.52-1.22-2.27-1.82l-3.28-1.92,1.75,1.66,3.45,3.78,1.72,2.24,1.51,2.06,1.05.79.62.13.96,1.18.64,1.42.69,1.41-.41.85.04,1.03-.77.28,1.65.97,1.94.39,1.8.55,1.46,1.3-.08.55-1.46-.77-1.99-.92c-.4.08-.82.16-1.25.25l.82,1.16-.91.57,1.78,1.9,1.17.84.24,1.01,1.28.83,1.48.52,1.93.03,2.66,1.91,2.25,1.34,1.01-.07.73-.71,2.13-.33c.34-.08.68-.15,1.02-.23l1.22.55,1.91,1.83.79-.04,1.85,1.4,1.61,1.64c.32-.09.63-.16.91-.24l-.13.92,1.06.89,1.97,1.88,1.69,1.78-2.21-1.8-3.68-3.19-2.76-1.8-1.83-.7-.85.48,1.99,2.54,1.97,1.43,2.01,3.32.53,2.09-.05,1.31-1.2.11-2.58-2.51-1.47-.41,1.37,1.73,1.83,1.36,2.24,2.02,1.28.32,1.68.95,1.24.47.94.69,1.4,1.19.05-.77q-1.11-1.86-2.93-3.31c-.43.05-.83.14-1.23.23-.3-.25-.69-.6-.99-.89.33-.53,1.24-.81,1.87-.96l1.84,1.81,1.72,1.24.69-.32,1.16,1.38c.2-.04.38-.09.55-.14l2.12,2.36,2.09,3.32.85,1.66.81.09,1.33,1.19c.25-.07.51-.14.75-.21l2.17,3.3c.83-.49,1.66-.97,2.49-1.47-3.01-5.36-4.38-7.34-8.21-12.84-.03-.03-.05-.06-.07-.09.03.04.04.06.07.1l-.16-.21c-.04-.06-.09-.12-.13-.18-11.81-15.49-11.89-15.57-18.8-22.72-3.44-3.32-7.96-7.86-11.55-11.03l.85.8.83.78.09.19.33.54,2.32,2.12,2.68,2.62c.63.62,1.27,1.23,1.9,1.87l2.06,2.31,2.36,2.68-.56-.2-1.86-1.77-1.46-1.43-1.68-1.82c-1.04-1.02-2.08-2.05-3.13-3.05l-2.34-2.42-.64-.19-1.86-1.36-2.28-1.79c-1.03-.9-2.05-1.78-3.1-2.65l-2.69-2.31-1.32-1.36-.85-.84-1.33-.9-2.23-1.7-.19.07-2.28-1.79-1.74-1.29-2.73-1.84-1.95-1.43-1.57-.9-.37.13.64.57-.27.21-1.23-.64,1.68,1.63,1.69,1.5Z"/>
    <path class="cls-2" d="m408.26,38.58l-.65-.37-1.99-1.11,3.61,2.04-.97-.56Z"/>
    <path class="cls-2" d="m360.75,168.82c4.64-2.05,9.33-4.16,14.07-6.34-.09-.4-.17-.79-.25-1.19-.72-2.7-1.89-5.24-2.83-7.86-1.71-.72-3.12-.51-4.54-.31-.38-1.69-.77-3.36-1.17-5.02-2.87.67-3.21.48-4.39-.13,0-.03-.74-2.88-1.81-4.23-.44.1-1.02.24-1.45.35-1.73,2.3-4.57,1.61-6.82,2.5-.42.08-.61.1-.8.12q-7.17-2.56-7.44-2.95c-1.91.27-3.83.54-5.76.81-4.56-4.11-7.96-.54-10,1.59q-4.03-1.7-12.34-1.25c-1.11.45-2.09,1.18-3.22,1.59-.06.35-.13.82-.2,1.19q2.42.59,3.07,1.07-2.42,11.84-5.47,12.16c-.08,0-6.31.85-6.91,5.04-2.31,1.26-4.32,1.52-6.32,1.79-1.96.55-2.51,2.9-4.45,3.49-.95.1-1.33.15-1.72.2-.34,0-.81-.02-1.16-.03q-.62-.71-1.54-7.6c-9.29.75-16.68,6.53-25.2,9.35-.19.02-.4.05-.6.07-.69-.24-1.61-.58-2.28-.84-1.04,0-1.24.01-1.45.04-1.31,1.38-3.29,1.77-4.64,3.12.39,4.82-11.41,33.92-11.54,34.18-.29.65-.42,1.65-.45,2.36.13,1.11.19,1.63.23,2.01.12-.04.23-.07.35-.1,16.38-4.99,33.19-10.73,51.38-17.55,22.06-8.27,44.82-17.57,67.65-27.64Z"/>
    <path class="cls-2" d="m446.24,86.44c-1.9-1.68-4.13-2.94-6.06-4.58-.82-.7-1.3-1.7-2.13-2.37-.34-.28-1.04-.41-1.04-.41l-.27.14c.17.51.34,1.03,1.38,1.91.25.22.63.17.87.38q.44.34,1.9,1.83c-.05.19-.02.41-.11.58-1.03.13-.86.63-.71,1.07.01.02.47,1.97-.37,1.94h-.15c.16.31.37.73.53,1.03l.28.25q1.34,1.13,2.18,2.51c1.39,2.29,1.8,2.44,2.01,2.51.32.11.35.14.54.28.16-.4.29-.75-.07-2.29-.2-.88-.15-1,.15-1.14,1.22-.24,2.39-.47,3.5-.69q-1.52-2.17-2.4-2.95Z"/>
    <path class="cls-2" d="m416.09,43.71c.62.37,1.9,1.15,2.07,1.19-.08-.22-1.61-1.07-3.23-1.95l1.02.68.14.08Z"/>
    <path class="cls-2" d="m447.5,82.52c-.3.05-.07.4-.1.6l.08.06c1.82,1.62,2.02,1.65,2.05,1.34l-.55-1.87c-.13-.31-.36-.58-.49-.9-.06-.18,0-.38-.03-.56-.21-.12-.53-.28-.75-.39l-.3.03c-.09.02-.08.11.17.56.19.37.27.7.25.97q0,.09-.32.15Z"/>
    <path class="cls-2" d="m363.24,20.11l-.14.08.02.19,2.24.79,1.09.2,1.62.43-.04-.22-2.07-.66-2.73-.8Z"/>
    <path class="cls-2" d="m340.35,14.95h.02c.66.09,1.32.18,1.98.29l-.76-.12-1.55-.24h-.07s-.07-.02-.07-.02l-.49-.07-.42-.05c-.33-.05-.67-.1-.99-.14l-.13-.02h-.13s1.34.19,1.34.19c.42.07.83.14,1.27.19Z"/>
    <path class="cls-2" d="m390.83,30.98l2.01,1.04,2.09.91.78.21-.08-.21-1.73-.92q-2.49-1.09-3.08-1.02Z"/>
    <path class="cls-2" d="m405.43,36.99l.19.1-.5-.28.32.18Z"/>
    <path class="cls-2" d="m394.32,31.34l2.09.98-.88-.45-3.31-1.54-1.96-.88-2.5-1.09c1.01.44,2.1.94,3.2,1.46l.65.28,2.72,1.24Z"/>
    <path class="cls-2" d="m365.12,20.36l2.56.74,2.43.75,3.61,1.19,2.71.97-.32-.07-3.12-1.12-1.65-.52-2.58-.84-2.43-.73-1.23-.33h-.17s-1.84-.49-1.84-.49l-.09.07,2.42.71,2.66.85,2.02.6,2.08.69h-.23s-1.67-.53-1.67-.53l.37.19-.41-.05-1.39-.42-.26.1.96.48,1.62.54-.03.11,1.32.47,2.13.9-1.2-.22.58.4,1.53.44.18.14-.12.13,1.24.5-.51.05.76.54,1.72.61.34.39,1.39.79.54.06,1.04.42.32.5,1.32.45.38-.09c.8.36,1.59.72,2.39,1.1l-.09.13c-.19.04-.38.09-.58.13l1.24.69,1.4.77-.38.09.56.66-.08.21,1.22,1.04c.35.19.7.38,1.06.57-.3.07-.63.14-.93.2l1.93,1.1,1.51.71c.17-.04.33-.08.48-.11l1.27.65,1.75.47,3.02,1.67.15-.35-2.07-1.57-2.89-2.49,1.33.53,1.45.6,3.48,2.62.45.89,3.12,2.03.7.96,2.4,1.26c.75.51,1.5,1.02,2.26,1.54l-.77-1.08-1.36-1.87-.83-1.04,1.36,1.03,1.06,1.01,2.2,2.38,1.55,1.03-.51-.92.74-.3-2.01-1.85c.16-.04.32-.09.46-.12l-1.65-1.35-1.46-1.01-2.47-1.9-.53-.68-.2-.29.81.34,1.27.68h.4s-.26-.45-.26-.45c-.71-.42-1.44-.83-2.17-1.24l-2.26-1.05-.22.07.34.39-1.01-.16-2.33-1.4-2.87-1.31-2.96-1.25-2.45-1.25-1.88-1.07-.59-.47-2.02-1-.65-.45-1.62-.78-.27-.24-2.24-1-.11-.17-2.35-1.05.52.13,2.06.93.73.17h.27s-1.23-.58-1.23-.58l-.22-.17,1.17.45.07-.07,1.7.78,1.08.53,2.13.97,2.15.94.53.14,2.81,1.36,1.64.84,1.59.75,1.89.85,1.84.91.05-.05,1.24.65,1.12.57-.4-.27c.51.27,1.02.55,1.53.82l.53.35,2.01,1.21.18.23,2.52,1.52.41.4,2.02,1.2.12-.08-.72-.53-.21-.21-.08-.16,1.86,1.11.44.24c-.66-.45-1.15-.75-1.63-1.04l-.18-.13-1.62-.98-.78-.43c-1.19-.71-2.43-1.41-3.66-2.08l-3.02-1.63-.33-.17c-3.58-1.77-7.76-3.87-11.59-5.66l-3.23-1.38-1.44-.63-2.04-.84-.75-.26-1.29-.58-1.51-.6.57.21-.07-.04-1.52-.58-1.08-.4-.48-.18.49.2-1.96-.72-.19-.08-.34-.11-6.2-2.08-3.56-1.08-2.96-.83-.41-.08v.06s2.15.55,2.15.55Z"/>
    <path class="cls-2" d="m403.4,35.89l-2.06-1.07-1.69-.9.03.05,1.53.82,1.33.68c.28.14.59.29.86.43h-.01Z"/>
    <path class="cls-2" d="m403.79,36.1c-.12-.06-.26-.13-.39-.19l.78.39-.39-.2Z"/>
    <path class="cls-2" d="m262,21.51c-.2.08-.41.08-.58.22l-.08.06c.19,0,.37-.06.54-.09h.13s.12-.04.12-.04l-.2.14h.04c.35-.04.61-.2.93-.31q.35-.17.7-.39v-.02c.26-.16.56-.24.84-.37l-.41.14q.28-.18.7-.37.18-.08.21-.12l-.21.05-.34.14c-.59.24-1.19.46-1.77.72-.2.08-.4.15-.59.24Z"/>
    <path class="cls-2" d="m229.51,48.07q.25-.07.31-.03c.19.02.33,0,.44-.02.9-.06,1.67-.53,2.55-.68.44-.05.91-.11,1.36-.16l.4-.35.15-.18.21-.74c.44-.37.82-.69,2.24-1.43q-.33.42-.33.66.58-.46.83-.72c.26-.16.34-.07.41.01l-.21.36c.22-.05.51-.12.73-.16.43-.57.97-1.05,1.34-1.68l-.1-.14q.35-.48.39-.61t-.7.05q.52-.74.47-.83c.25-.38.83-.45.92-.98.03-.28-.15-.25-.74-.17.32-.35.66-.69.99-1.03-.36-.11-.73.09-1.08-.01l.42-.33.15-.15q.54-.55.79-.56c.17.67.94-.48.95-.5.19-.34.02-.53-.05-.57-.3-.19-.6.05-.93-.02.24-.2.45-.41.67-.6l.32-.29c.52-.45.82-1.07,1.39-1.45-.16-.12-.75.04-.99.11q1.19-1,1.18-1.16-.21-.05-.26-.07l-.02-.09q.45-.48.51-.62c-.36,0-.74.03-1.11.07q.9-.88.82-.98l.04-.08h-.33s-.07-.04-.07-.04l-.19.02c-.33.06-.68.11-1.01.17l.1-.15.02-.17-.02-.08-.46.04c.02-.17.18-.26.27-.39q-.1-.04-.35.02v-.08c.34-.33.86-.42,1.1-.87q-.07-.02-.26,0l-.15-.04h-.13q-1.41.53-2.27,1.06c-.17.11-.32.23-.5.34l.27-.04v.09c-.68.5-.85.62-1.05.86.23,0,.45-.01.68-.04l-.35.4h.47c-.11.14-.26.23-.31.39.31-.02.59-.05.9-.09l.02.18h.07c.01.28-.36.32-.39.55.24.09.49-.07.72,0-.41.48-1.06.75-1.29,1.4l.31.06-.33.33-.08.17h.18q0,.09-.16.27.12.02.56-.04c-.38.68-1.09,1.1-1.4,1.84h.16c-.08.16-.23.28-.2.46q-.46.5-.57.81l.13.06-.34.32.13.05.12.06-.26.31c-.06.11-.19.34-.26.62l.08.05q-.17.25-.49.56c-.8.76-.77.87-.72.99l-.19.22c-.58.58-1.24,1.1-1.86,1.64q-3.93,2.9-4.08,3.04c-.23.25-.45.5-.66.76Z"/>
    <path class="cls-2" d="m235.65,52.73c.29-.03.59-.07.89-.1.37-.59.73-1.19,1.12-1.77l.38-.38.22-.45c-.61.07-1.2.14-1.79.21-.16.2-.29.42-.47.61-.16.16-.24.18-.33.21-.49.12-.63.16-.75.51l-.04.41.13.03.4.15.16-.02s.04.07-.05.25c-.13.29-.16.38.16.34Z"/>
    <path class="cls-2" d="m235.09,28.49c.27-.11.53-.23.81-.32h-.02c.28-.04.53-.2.78-.3l.43-.19h0s0-.01,0-.01l-.35.13h-.02c-.09.02-.36.1-1.62.64-.16.07-.33.15-.5.22h.04s.02.02.46-.16Z"/>
    <path class="cls-2" d="m231.18,31.13c.29-.24.67-.33.98-.53h-.04c-.14.01-1.73.79-2.02.94h.06c.19-.07.36-.18.56-.21l-.23.13c.25-.11.46-.23.69-.34Z"/>
    <path class="cls-2" d="m250.15,23.24c-.29.15-.61.23-.92.35t.9-.25c.41-.13.81-.28,1.22-.42h.05s-.19.08-.19.08c0,0,.3-.06,1.86-.65h-.06c.77-.41,1.62-.53,2.4-.83h-.03c.55-.36,1.24-.39,1.84-.66-.23.06-.71.19-2.51.76h-.17s-.15.05-.15.05l-.36.11c-.29.09-.56.18-.83.28h.04c-.38.13-.77.26-1.17.39-1.36.46-1.36.46-1.4.5h.09c-.22.14-.47.16-.7.28h.08Z"/>
    <path class="cls-2" d="m256.56,21.25c-.45.15-.76.25-.99.35h0c.37-.09.75-.25,1.14-.34.39-.13.79-.25,1.18-.37l.57-.19c-.17.05-.35.11-.53.14l.39-.13c-.24.06-1.74.54-1.77.55Z"/>
    <path class="cls-2" d="m260.86,22.52l.05-.03.07-.04h-.1s0,.01,0,.01l.04-.03h0s-.09,0-.09,0l.08-.08v-.04c-.21.1-.42.17-.62.28l-.25.12-.02.08-.11.1.23-.02s.21-.08.74-.34Z"/>
    <path class="cls-2" d="m241.77,26.11c-.52.21-.55.22-.99.44l.08.02.23-.05.02.05c.55-.16,1.06-.44,1.61-.59h.36q2.04-.83,2.9-1.11l.44-.17c.39-.16.78-.3,1.18-.49h-.04c.33-.15.72-.18,1.02-.41h-.1c.36-.27.84-.3,1.25-.49h0q-.24.04-.94.27-1.01.38-1.11.39c.41-.2.87-.32,1.3-.5l-2.7.91c-1.1.41-2.15.96-3.29,1.26-.43.16-.85.32-1.25.47Z"/>
    <path class="cls-2" d="m237.26,27.69l-.4.19h.1c-.21.11-.43.19-.65.3l.11.02.31-.12c-.63.45-1.39.62-2.05,1q.34-.12,6.59-2.83h-.04c1.14-.48,2.31-.9,3.43-1.39h-.02c-1.03.35-2.02.8-3.03,1.14h-.01c.37-.17.75-.3,1.12-.46-.24.02-1.15.38-2.79,1.04h-.09c-.25.09-.5.19-.74.29-.25.09-.48.19-.71.29-.72.29-1.16.48-1.29.55l.19-.04Z"/>
    <path class="cls-2" d="m249.51,23.64h-.04c-.36.11-.69.24-1.04.34l.07-.04c-.2.06-.4.14-.6.21l-.58.21-.44.17c-.31.12-.77.33-.77.33q.07,0,.43-.13c.29-.11.58-.23.87-.32h.03q.36-.08,2.06-.72h-.03s-.04,0-.04,0l.26-.11-.19.05Z"/>
    <path class="cls-2" d="m225.08,41.52l.16-.02.19.04.46-.25.63-.82.19-.31v-.02s-.05,0-.05,0c-.24.05-1.03.38-1.58.82-.19.15-.46.36-.44.45h.17s.32-.04.32-.04h0s-.06.14-.06.14h.02Z"/>
    <path class="cls-2" d="m119.68,170.73l-1.71,10.56c-.73,5.99-1.21,14.02-1.61,20.04,0,0,0,.02,0,.03l.04,2.69c0,.38,0,.76,0,1.14,0-1.34-.01-2.63-.03-3.82-.22,4.79.17,11.17.23,15.95,0,0,.02.01.08.42.07.56.12,1.13.19,1.69l.09.05c.09,1.32.18,2.64.3,3.97,0,.78-.02.86.55,5.66.08.04.18.07.32-.32-.17-1.66-.52-3.29-.71-4.95-.11-1.21-.2-2.42-.29-3.74-.02-.16-.02-.4-.04-.58,0-.25-.04-.51.3-.52,1.04,4.3,1.77,12.25,1.81,15.63.04.69.07,1.28.1,1.81,1.62.06,3.23.11,4.9.12.01-1.17.2-1.99.61-2.47.05.17.13.4.19.57.03.22.06.45.11.67.02.22.06.45.23.78.2.21.29.32.41.45.43,0,.87-.02,1.31-.02.36-2.6-1.71-5.07-.69-7.71l.51-.08-.02-.23q-.11-1.01-.24-1.76c-.02-.22-.05-.45-.07-.79q.11-.73.62-2.75c.07-3.95.11-6.33.74-8.19l.48-.16c.04.66.07,1.33.11,1.98.35-.01.72-.04,1.12.03.19.94.95,1.52,1.4,2.32.04,0,.08,0,.38-.12l.33-.42c.37-.03.74-.05,1.2.43q.46,3.76,1.1,4.25h.02s0,0,0,0h.03s.02,0,.02,0h.01s.02,0,.02,0h.03s.01,0,.36.04q1.41,2.21,1.46,2.22c.03.09,2.73,7.66,5.56,10.15,2.21-.21,4.47-.45,6.8-.73,1.91-.23,3.88-.52,5.83-.79.38-2.87.58-5.75-.14-8.65-.05-.48-.1-.95-.19-1.81,0-.06-.59-6.23.94-7.59.17.07.39.16.56.22.14.32.3.75.43,1.07q.36.11,1.67,1.43c2.53-.29,1.95-3.03,3.32-4.25.01-.02,1.66-2.17-2.02-1.95,1.47-1.32,1.73-1.37,2.29-1.48.14-.01.28-.03.82-.09q.43-1.16.61-1.5c.17-.04.38-.09.55-.11-.06-2.89,3.51-6.75,3.55-6.77.82-.08,1.63-.17,2.46-.26l2.79.37,3.83-.4c.31-.18.68-.42.97-.6.8-.08,1.61-.17,2.41-.25,1.02-.57,1.29-2.26,2.89-1.94.82-.09,1.65-.18,2.67-.29,1.39-.68,1.02-2.18,1.54-3.27l.05-.07q.91-1.12,1.85-1.27c.17-.02.34-.04.79.07.58.23,1.23-.01,1.79.3.17-.02.35-.04.51-.05.12-.01.21-.02.6-.08,4.08-.89,4.45-1.42,5.86-3.4.8-1.11,2.33-1.49,2.88-2.86q.89-2.24,1.98-3.68,1.69-2.22,1.9-2.35s2.85-1.64,3.33.54c.64,3.04-.92,5.72-1.34,8.59-3.4,1.67-3.43,1.75-3.88,2.62.05,1.08.1,2.16.15,3.24-.22.02-.44.05-.88.15-1.45.6-3.02.8-4.47,1.42-.19.02-.39.04-.85.07-.24-.02-.54-.04-.77-.03-.18.02-.35.04-.8.24l-.24.35s.09,2.01,3.09.14c.09,0,.19-.02.48-.03.42.07.52.09,1.17.51.17.06.41.12.58.17.08,2.78-2.08,3.27-2.09,3.28q-.63-.64-2.17-1.87c-.11.01-.21.02-.6.1-.46.24-.87.53-1.33.78-.19.02-.36.05-.84.11-.63.06-1.26.28-1.91.19q-.84-4.84-2.55-5.21-.3.33-.61.97c.05,1.09.09,2.17.1,3.35q-.3.66-.68.85c-.18.69.01,1.46-.41,2.11l-.29-.29c.35,5.78.85,11.62,1.75,17.64.02,0,.85,1.37,1.39,2.9.85-.1,1.7-.19,2.67-.12.32.43.54,1,.72,1.55,12.04-2.7,24.68-5.97,38.27-9.92.05-.19.1-.38.15-.65.46-2.49,3.36-5.14,3.36-5.15,2.6-1.53.11-4.27.81-6.33,0-.04,2.37-5.68,2.59-5.93.63-.77,1.89-.55,2.41-1.52.46-.86.28-2.06-.04-2.91,0-.11-.01-.22-.03-.64l2.18-6.2c.76-1.55,2.17-2.66,2.93-4.21.1-.18.25-.42.36-.61.66.47.81,1.68,1.93,1.45.22-.03.43-.05.91-.2.7-.58.84-.7,1.71-2.4.57-1.53,1.96-2.74,1.78-4.55l-.09-.38v-.31c-.03-.27-.05-.63-.01-.9.13-.34.39-.61.55-.94l-.03-.39c0-.21-.03-.43.18-.7,1.67-.46,2.02-.56,2.9-1.32l-.34-.16-.34.04-.35.05c-1.1.48-2.51.7-2.51.7-.1.01-.2.03-.41.08-.19.18-.4.41-.53.61-.24.16-.58.35-.87.39l-.32-.24-.31-.12-.32-.05-.37.05q-1.17-.17-1.58-.12l-.31.04-.31-.2-.32-.28c-.85-.61-1.77-3.48-1.78-3.5-11.8,1.47-23.37,2.86-34.53,4.17,11.16-1.31,22.73-2.71,34.48-4.48l-.08-.31-.33-.27-.3-.2q-.69-.28-1.86-1.88l-.21-.29-.19-1.08-.16-.29-.29-.19c-.13-.27-.28-.65-.41-.92.11-.25.25-.6.35-.85l.04-.32c.54-1.31.14-2.31-.3-3.36-.18-.57-.31-1.37-.32-1.97l.06-.29.5-.83.3-.12.29.2.15.27.3.12c.11-.01.21-.02.92-.18.4-.48,1.11-1,1.72-1.21l.44-.05.27.04c.26.03.58.09.82.13,0,.28,0,.65,0,.92,0,.13,0,.25,0,.53.02.27,0,.65,0,.93,1.31-.17,2.63-.33,3.96-.49l.39-.2.3-.13.27-.26.21-.33.98-.98.78-.93c.53-.27,1.31-.52,1.89-.54l.44.25.18.28c.24.42.32,1.09.28,1.57l.07.31-.05.3.32.19.29.12c.12-.02.23-.03.95-.19.38-.27,1-.43,1.46-.5l.28-.03.28-.2.22-.34.27-.41c.25-.32.63-.73.9-1.04l.27-.28.21-.31.29-.28.28-.11c.17-.03.35-.05.65.82-.06.37-.01.87,0,1.24l.26.74.73.9.26-.26.29-.34c.1-.53.13-1.25.12-1.79l-.18-.36-.17-.29-.32-.33c.04-.28.11-.66.18-.94l.28-.26.36-.35.19-.33.29-.2.21-.33c.28-.49.6-1.18.77-1.71,0-.17-.02-.34-.09-.74,0-.29,0-.68-.01-.97-.69-1.98,1.94-2.8,1.59-4.65-.3-.08-.69-.18-.98-.25l.37-1.09c.18-.11.42-.25.6-.36,0-.27-.01-.64-.01-.92q4.86-2.31,6.06-1.51c-.11.51-.07,1.26.11,1.76.18-.02.39-.05.58-.07.2-.03.38-.05,1.27-.13.5-.28,1.14-.73,1.55-1.12l1.05.16c.01.19.03.38.09,1.17q-.84.9-2.32,1.62c-.71,2.97-.82,3.5-2.16,3.96-.34-.46-.65-1.2-.77-1.77-1.21.71-1.39,1-1.94,2.08.55.03,1.29-.01,1.84-.09.08.51.16,1.21.21,1.72.23.17.53.4.77.57.18-.03.37-.05.83-.09.44-.36,1.11-.74,1.65-.94.24.14.57.34.8.48-.04.27-.08.64-.12.91.02.2.03.4.04.77.37.45.86,1.04,1.25,1.45.3-.02.68-.05.98-.06.44-.06.89-.12,1.76-.5.11-.59.07-1.42-.11-1.99.94-1.33,1-1.38,1.96-2.11.13.22.31.52.43.73q1.51-.65,2.67-2.95c-.18-.2-.44-.48-.63-.68-.13.25-.32.57-.45.82-.47.06-.95.12-1.45.19-.07-.79-.15-1.59.61-2.74,2.38-.43,2.26-2.14,2.14-3.65q1.23-1.1-.32-4.24c1.12-2.56,4.07-3.22,5.58-5.38.02-.17.05-.41.07-.59,4.1-1.15,4.64-6.5,8.87-7.5.4-1.77.53-2.31,2.56-1.87.08.54.01,1.32-.18,1.84.02.09.04.18.66.61l.62.49c.07.5.15.98.24,1.48-.62.05-1.43.16-2.02.29-.19.57-.34,1.36-.36,1.97-.19.03-.38.05-.66.4q-2.64,2.56-2.11,3.48c-2.41,2.66-3.9,2.85-4.57,2.94-.9,2.36-3.38,3.06-4.97,4.66q.11,2.74.13,2.79.76-.92,2.2-1.64c.77-.1,1.52-.2,2.54.57.02.22.06.44-.49.81-.39.06-.79.11-1.9.19.02.22.05.44.1,1.56,2.2,1.44,3.88,3.69,6.55,4.4.09.75.2,1.5.29,2.26,1.17-.16,2.34-.31,3.83-.55,1.7-.77,2.46-2.59,3.98-3.54-.15-.2-.35-.47-.51-.66-2.06.26-8.13.01-9.68-.39-.43-2.4,3.22-6.94,10.85-13.5.16-.55.59-1.24,1.05-1.6,2.29-1.63,1.64-5.56,4.98-6.4,1.9,1.59,2.55,1.48,3.44,1.34.18-.02.38-.05,1.2-.12,1.19.97,1.24,1.12,1.64,2.28.29-.03.69-.06.97-.09.28-.04.55-.08.81-.12q1.36-.27,2.89-1.42h.03s.04,0,.04,0h.04s.03-.02.03-.02h.04s.03,0,.03,0h.05s0,0,.48-.11c3.72-1.44,3.88.74,4.06,3.26.03.2.08.39.13.57.12.57.24,1.14.94,1.7.06,0,7.5.71,8.75,2.41q2.11,2.74,2.29,3.31c-.39.46-.8,1.16-1.02,1.72.16.64.29,1.29,1.29,1.95,5.88-.69,10.5,3.25,15.91,4.31l-.52.23c.27.03.64.07.9.1.1-.57.32-1.32.53-1.86q1.76-1.29,1.97-1.5c.56.11,1.34.17,1.92.16.91-1.28,1.3-1.23,2.46-1.11.54-.08,1.08-.16,1.58-.43q-.26-1.7-1.15-2.68l-.16-.58c-.06-.2-.11-.39.03-1.37q.4-1.27-2.36-4.96c-.31-1.12-.65-2.23-.97-3.34.63-2.21-1.73-4.16-.56-6.41l-.45-.52c-.85.13-1.73.26-3.11-.27-.21-.18-.49-.43-.71-.6l-.26.04q-.55.53-2.59,1.09c-1.57.23-3.13.46-5.31.98-.9,1.55-2.73,1.46-4.04,2.26-.18.02-.36.05-.79.1-.67-.16-1.55-.43-2.19-.7-3.11-5.99-3.12-6.03-3.49-7.32.53-.78,1.28-1.34,1.81-2.14-.27-.95-.52-1.89-.29-3.48q.25-.54,1.74-2.3c.17-.03.34-.05,1.43-.16.47-.3,1.01-.85,1.31-1.32.17-.02.34-.05.52-.85q-.82-.63-3.62-.89c-.13.25-.28.59-.41.84-1.31.14-2.53.66-3.85.72-.07-.22-.14-.44-.2-.66l.11-.57c-.25-.29-.55-.68-.8-.97.25-.15.62-.37.89-.52-.16-.52-.31-1.04-.97-1.58-.23.18-.54.43-.77.61.06.17.11.35-.48.75-.27.04-.63.08-.94.12,0,0-.02,0-.51.35-.62.09-1.25.18-1.88.26-.13-.52-.29-1.05-.55-1.57-1.18-.12-1.39-.15-2.9.04-.27-1.04-.54-2.06-1.51-2.96-.28.04-.67.08-.95.12-.17.03-.35.05-.94-.17-2.46-1.6-2.8-1.67-4.42-1.58-.13-.55-.26-1.1-.4-1.65l.85-.62c-.09-.32-.16-.66-.3-.96-.28.03-.66.07-.92.1-.17.03-.32.04-.47.07-.19.02-.35.04-1.12.52q-4.73-2.58-6.85-1.98c-.21.03-.41.06-1.53.13-.3-.01-.69-.03-.96-.04-.26.04-.5.06-.74.1-.07-.32-.13-.65-.23-1.26.16-.55.34-1.27.48-1.81l-.46-1.06c-.04-.17-.07-.33-.11-.56-.53-1.52,1.02-2.93.24-4.45-.55-.15-1.22-.47-1.68-.79-.03-.08-.03-.15.01-.67-.18-.21-.44-.5-.62-.71q-.71.04-2.88-1.83-.44.24-.55,4.01c-.29,0-.66,0-.94,0,.05.26.07.49.3,1.12.21.2.49.46.7.66-.06.27-.17.64-.26.92h-.04c-.07.01-.17.02-.61-.17q-.59-.64-2.49-.88c-.3.04-.6.09-.89.38.34,2.94,1.21,3.83,1.64,4.26,1-.14,1.8-.8,2.7-1.17.62-.09,1.26-.17,1.92-.19.08.27.2.62.27.9.05.29.11.57.15.85-.32.05-.66.09-.97.13-.37.27-.7.85-.87,1.28-.26.11-.62.24-.87.33-.34.04-.67.09-1.14-.44-.04-.28-.08-.64-.11-.92-.31.01-.73.03-1.04.05-.34.04-.65.08-1.13.17-.51.11-1.28,0-1.73-.29l-.97.13c.54,3.38-1.58,2.69-9.46.14-1.06.81-1.96,1.81-2.97,2.65l-.5-.06-.16-.48c.39-.43.75-1.15.9-1.72q-1.05-.53-4.51.57l-.27-.46c.17-.19.41-.45.57-.65,0,0-1.35-4.13-1.87-6.23-.49-.27-1.07-.78-1.42-1.22-.31.04-.62.08-.93.13.01.28.02.66.02.94-.15.02-.31.04-.83.76-.11.27-.25.61-.36.89-.27.08-.65.2-.94.29-.29.03-.57.08-.96-.51-.28-.47-.93-.97-1.45-1.11-.06-.28-.13-.67-.18-.95,1.06-.65,1.47-1.96,2.57-2.61.52.29,1.16.79,1.6,1.19q1.62-.23,2.63-.86c0-.3-.03-.69-.05-.99-.6-.14-1.38-.37-1.97-.58h.03s.01,0,.01,0h.04s.02,0,.02,0h.03s.03,0,.03,0h.03s.02,0,.44-.18l.25-.27-.08-.42s-.01-.02-.19-.1c-.22-.09-.33-.09-.33-.09-.24,0-.46.06-.69.07l-.16.05v.45c-.25.29-.3.34-.49.42l-.05.02h-.27c-.2.02-.34.15-.52.19-17.01,2.22-33.85,4.31-49.58,6.14,15.75-1.83,32.58-3.92,49.47-6.59-.23-.21-.48-.61-.53-.93q-.67-.25-1.57.16c-2.46-1.18-4.47,1.46-6.89.82-1.02-2.1-1.43-2.06-4.17-1.77l-.38-.38.26-.49c.73-.09,1.43-.18,2.59-.56.12-.31.33-.7.53-.96l.21-.02c.32,0,.78.14,1.06.31,1.13-.14,2.26-.29,3.82-.27l.08.44c1.47.5,3.03-.14,4.49.42.09,0,.15-.02.39-.06.04-.02,3.89-2.63,4.79-3.44-.01-.34.02-.82.09-1.17l-.02-.43c.18-1.52-.15-3.01-.21-4.51q-5.76-3.73-5.62-5.47c-.38.06-.76.1-1.15.15.04-.42.07-.85.26-1.61.36-.64.4-.73,1.28-1.19l.41.39q.47-.17,1.27-1.23h.03s.02,0,.02,0h.02s.02,0,.02,0h.03s.03,0,.03,0h.02s.03,0,.03,0q.99-.26,1.67-.19c.34,1.63,1.59,3.03,1.18,4.83l.43.42q1.01-.04,1.61.29s2.03,2.17,4.6,2.49q1.93,2.65,1.99,2.67c.09,1.14.19,2.3.31,3.93-.27.21-.67.42-.99.53q-.22.61-.08,1.75c-.76.01-1.45.25-2.18.33-.02.17-.07.39-.08.56,0,.16.02.31.05.9,1.2.74,1.26.77,1.4,1.61.52.18,1.07.23,1.55.53,4.58-.62,9.18-1.24,13.66-2.18-.03-.19-.05-.44-.07-.63.43-.53.4-1.4,1.25-1.6.06.3.11.6.23.9q1.64.27,2.45,1.13c2.59-.36,5.17-.71,7.73-1.07q-.65-.34-.92-1.3,1.32-.25,1.72-.58c-.05-.17-.1-.4-.14-.57q-.64-.28-.99-1.21c-.3-.12-.67-.42-.86-.69l.34-.48c.17,0,.4-.01.57-.01.4-.06.77-.1,1.14-.16-.07-.29-.16-.57-.58-1.25-.14.02-.29.04-.49-.02q-.91-2.27-.98-2.29c-.13-.3-.2-.74-.17-1.06-.96-.72-2.6-.39-3.05-1.93-.92-.25-1.81-.62-2.72-.88h-.03s-.03,0-.03,0h-.03s0,0,0,0h-.03s-.02,0-.02,0h-.04s0,0-.4.02c-.32-.04-.78-.18-1.08-.35.03-.19.07-.45.1-.63l-.29-.68c-.25.03-.5.07-.9.14-.28.22-.77.42-1.15.44-1.35-1.41-3.86-1.14-4.68-3.3.25-.03.52-.07.96-.08.17-.04.4-.09.57-.13l-.24-.62c-2.27-.73-2.69-.93-3.18-1.18l-.03.35c-.36-1.05-1.11-1.91-1.53-2.94-.01,0-1.46-.6-2.15-1.69-.33-.05-.75-.2-1.03-.36-.08-.74-.66-1.22-.94-1.86q-1.62-.42-2.16-.34c.04-.19.09-.44.12-.64.7-.18,2.02-.54,3.37.44q.84-.16,2.06.44c.21-.03.43-.05.65-.08l-.41-.4-.34.05-.52-.65-.33-.04q-.69-.61-1.72-.48l-.42-.38.27-.47q-.24-.1-1.65-.12c-.04-.35-.06-.69-.15-1.03-.17.04-.38.09-.54.12.02.35.11.81.2,1.14q-1.36.65-1.43.71l-.5-.2c-.01-.11-.01-.23-.06-.57.25-.21.57-.51.8-.74-.14-.17-.35-.39-.52-.55-.17,0-.39.02-.55.03l-.42-.41c-.08.32-.25.75-.43,1.02-.47-.07-1.54-.24-.92-2.16,0-.21-.01-.41-.16-.63-.98.12-1.47,1.13-2.38,1.4-.12.31-.29.74-.42,1.06q-.27-.56-.19-1.63c-.2.02-.39.05-1.01.22q-1.29.32-1.57.52c-.21.02-.42.06-.61.08.04-.25.06-.5.15-.76q1.45-.39,1.54-1.32c-.58-.29-.72-.35-1.6-.42-.33.04-.66.08-.75.33,0,.16-.02.38-.04.54l-.49.24-.22.02c-.25-.18-.49-.55-.55-.85-.51-.2-1.07-.23-1.53-.55l-.08-.06-.36.12-.17.81c-.19.02-.38.05-.72.11-.51.51-.53.55-.53,1.48l-.24-.21c.02-.11.04-.22-.02-.59.06-.32.17-.75.26-1.07l-2,.26c-.03.1-.05.2-.04.37l.25.5c-.06.22-.1.45-.37.7-.18,0-.41,0-.6,0,.09-.33.16-.66.26-.99-2.31.55-3.13,1.46-3.43,1.8.09.19.2.44.31.62.17,0,.39-.02.55-.03-.03.13-.06.26-.35.48-.88.33-1.72.79-2.63,1.06l-.38-.42c-.3.04-.6.08-.9.11-.38.82-.51.9-1.07,1.23-.02.06-.04.12-.08.44.02.17.04.4.06.57l-.48.32c-.12.01-.21.02-.69-.26l.19-.54c-.31.03-.63.08-1.14.3-.44.4-.97.7-1.44,1.04-.06.01-.11.02-.71,0-1.27,0-1.61.23-2.14.62-.38.17-.86.46-1.14.75l-5.17,2.49c-.07.03-6.24,3.95.53,5.47l.34-.04c.13-.02.25-.03.75-.09.91-.23,1.66-.77,2.53-1.08.8-.1,1.6-.2,2.82-.48.02-.02,4.15-2.34,5.38-2.78-.78,2.81-4.72,2.88-5.16,5.96l-.38,1.32c-.39.05-.78.1-1.17.15l-4.41,4.46-.31-.46c-.64.08-1.27.15-1.91.17,0-.17-.01-.41-.01-.57.84-.82,1.08-1.02,2.04-.94.13-.02.24-.03.6-.37l.2-.53c1.2-.45,1.15-1.06,1.12-1.55-.32-.1-.71-.34-.92-.56-.24.33-.96,1.34-3.72,2.24-.13.02-.25.03-.47.07q-.5.21-2.17.45l-.04.04c.32-1.35,1.75-1.92,2.21-3.17l.07-.02c-.2-.02-.44-.03-.62-.05q-.32-.82-1.71-1.09c-.17-.28-.32-.71-.4-1.03q-2.46.34-2.52.41l-.18.4q-.41.3-1.6.57c.2-.67.61-1.26.65-1.97l.14-.29q1.09-.93,1.4-1.1c.9-.85.86-.94.66-1.58.36-.76.75-1.51,1.61-2.51.19-.05.41-.1.6-.15.11-.28.25-.54-.12-.77-.22.02-.43.05-.64.08-.9.08-1.01.17-1.56.62l-.15.02c-.18-.03-.41-.07-.59-.1q-.78.68-1.26,1.19c-.29.13-.64.36-.9.56-.22.4-.44.8-.67,1.2.58-.06,1.17-.14,1.71-.08q-.19.43-2.76,2.91s-.1.01-.3-.04q-1.46-.39-1.79-.99.06-.1,1.13-1.26l-.4-.39c-.31.04-.76.02-1.07-.08-.35-.95-.39-.96-1.16-1.12-.09,0-.19.02-.75-.09-.08-.19-.17-.43-.24-.61-.17.02-.38.06-.56.08-.13.02-.27.03-.66-.17l-.24-.49c-.18-.01-.41-.03-.57-.04l-.24-.49q-1.44,2.18-2.26,2.72c-.28.03-.55.07-.84.1.24-.33.47-.66.5-1.04-.21.02-.42.05-.62.07-.09,0-.19.02-.62.16-.1.01-.2.03-.61-.04,0-.17.01-.42.01-.59-7.36,9.62-13.81,20.69-19.25,32.92,5.44-12.23,11.89-23.3,18.96-32.88l-.4.13-.28.03-.39-.18.19-.42-.16-.41c-.12.01-.23.02-.44.13q-.23.22-1.74,2.21l-.38.13c.03-.43.27-.82.24-1.27-.08,0-.16.02-.5-.27,1.46-2.98,5.07-3.16,7.08-5.43l-.04-.43s-.09,0-.45.1c-.46.15-.8.49-1.21.73-.99.46-1.85,1.15-2.83,1.63-.41.04-.8.08-1.33.17-.39.25-.74.55-1.15.76-.36.04-.74.08-1.35.23-8.05,4.75-8.46,4.79-8.88,4.83-.07,0-.15.02-.42.04q1.28-1.61,2.56-2.46c3.46-2.01,4.51-2.61,4.95-3.75.13-.72,1.88-1.93,2.32-2.21.09,0,.15-.02.41-.17l.32-.29c.07-.06.12-.12.44-.43l.2-.45c-.06,0-.14.01-.48-.25.04-.03,2.96-3.04,3.7-4.05l-.43-.05.05-.43-.45.12-.32.02c-.6.1-1.1.48-1.7.61l-2.56,2.1c.16-.07.39-.05.55-.05-.84.71-1.69,1.43-2.59,2.22-3.2,2.29-3.32,2.43-5.52,4.74-.13.13-.27.25-.57.54q-6.86,6.56-6.88,6.83c-1.38,2.11-1.21,2.51-1.03,2.94.59-.07,1.14-.32,1.74-.38-.11.24-.25.56-.35.81l-.41.23c-.45.04-.9.09-1.66.32q-1.05.59-1.67.67l.2-.41c.13-.14.25-.28.44-.65-.03-.26-.03-.6-.02-.86l-.44-.03s4.32-5.08,4.8-6.03l-.29-.32c-.78-.01-2.29,1.08-3.26,1.84,1.62-1.42,3.08-3.05,5.07-4,.02,0,.05,0-.07.24-.12.24-.31.54-.46.76.3-.03.59-.06,1.07-.15,1.25-.86,2.25-2.01,3.44-2.94l.19-.18q.52-.71,4.94-4.06l.19-.19s.92-.99,1.52-1.89l-.42.04c.17-.13.34-.27.54-.45q.25-.21,2.76-2.16h-.02s-.02,0-.02,0h-.01s-.02,0-.02,0l-.27.03q-1.32.87-4.1,3.1c-.28.24-.56.47-.91.75-1.51,1.38-3.63,1.55-5.25,2.7,0,0,1.52-1.25,3.25-1.94h.02s.03,0,.03,0h.01s.02,0,.02,0h.03s.02,0,.02,0h.03s0,0,.27-.05c.65-.33,1.39-.7,2.12-1.81h-.12q-1.16.44-1.27.43c.89-.74.91-.75,1.97-1.02l.41-.44-.11-.42-.41.18c-.35.24-.84.54-1.23.72-.26.02-.53.04-.81.07q-3.41,1.82-3.63,1.83l.36-.33c.17-.11.3-.23.53-.41,1.2-.91,1.62-1.03,1.95-1.12h.2c.81-.21,5.32-3.42,5.5-3.61-.21.02-.43.03-.58.01l.33-.28.21-.31c-.17,0-.36.03-.57-.17-.28.03-.62.08-.89.12l.11-.43-.4.13.36-.27c.17-.11.34-.22.64-.4q4.86-3.1,5.76-4.23l-.39.15c.38-.3.74-.58,1.12-.89l-.13-.15c.64-.39,1.35-.67,1.93-1.16l-.46.18s-.03,0-.23.01q-1.45.62-1.72.68c.24-.15.56-.33.8-.46.18-.1.36-.19.67-.36h-.02s0,0,.29-.18c.28-.15.65-.34.92-.47h-.4q.99-.48,6.05-3.06l-.27-.02c-.39.17-.78.35-1.18.53-1.7.89-2.16,1.03-2.48,1.13l-.11-.02c-.58.27-1.16.55-1.73.83-.2.11-.47.25-.69.35l-.45.21h-.06c.58-.29,1.16-.57,1.53-.79-.28.13-.66.3-.93.42.23-.11.55-.28.77-.42l-.4.17s-.03-.03-.3.07c-1.31.63-2.63,1.25-3.94,1.91l-.07.02c-1.04.52-1.86.93-2.9,1.5,0,0,0,0-.27.14-.57.32-1.13.61-1.69.93,0,0,0,.02-.27.18-1.9,1.04-2.03,1.13-2.48,1.43v.02c-.23.14-.54.33-.77.47-.28.17-.65.39-.92.58,0,0,0,0-.34.24-1.18.72-4.31,2.85-4.34,2.87l-.15.07.18-.18.02-.09.31-.28.1-.09c.24-.16.57-.36.79-.52.1-.05.19-.11.39-.24.42-.24.84-.49,1.26-.74l.25-.17-.02-.06c.92-.58,1.89-1.09,2.78-1.71l-.41.23c-.08.05-.18.1-.41.23-1.41.82-1.66,1-2.03,1.27-.35.2-.8.46-1.13.63.4-.25.82-.5,1.22-.75-.79.39-1.54.91-2.32,1.35h-.05s.35-.22.35-.22l-10.44,6.78c-7.31,4.93-9.44,6.81-23.24,19.06q-7.22,6.94-19.9,22.26l-.82,1.07c-4.91,7-11.08,16.61-15.46,23.95-4.25,7.44-5.32,10.08-12.29,27.32,0,.03-.02.05-.03.08,0-.03.02-.06.03-.09l-.03.09c-3.34,9.26-3.45,9.69-7.93,29.11Zm80.08-111.49c.63-.32,1.19-.73,1.74-1.16-.05.04-.09.08-.1.08-.21.21-.41.41-.61.62q-.56.57-2.31,1.78c-.07,0-.13.01-.42-.25.47-.5,1.16-.65,1.7-1.08Z"/>
    <path class="cls-2" d="m285.73,77.05c.26.06.98.21,1.33.61q.12.11.42,1.34t1.36,2.65l-.45.17.08.44q-.11.07-1,.06c-.31.04-.6.08-.91.12q-.03.63.11,1.17c.62-.09,1.24-.16,1.88-.24.05.48.09.95.14,1.44.66-.11,1-.15,1.2.06.34.4.66.73,1.06.33l.62-.3c.14-.02.31-.04.47-.07,1.14-.18,1.34.59,1.7,1.98,1.11-.15,2.23-.29,3.33-.45-.01-.33.11-.66.09-1l-.03-.24c-.12-.44-.59-.66-.64-1.14q-.04-.37.41-.85c.75-.76,1.03-1.05,1.04-2l-.07-.46c-.03-.16-.05-.31-.08-.48.03-.23.48-.96.48-.96l.49-.24c.49-.39.47-1.28.46-1.46-.02-.31-.43-.16-.53-.4l-.03-.23c-.05-.71.79-1.03.74-1.74-4.57.62-9.16,1.24-13.68,1.86Z"/>
    <path class="cls-2" d="m504.41,184.48l.13,1.59.18,2.23c.09.93.18,1.87.27,2.82l.09,1.13c-.18-2.69-.38-5.37-.64-7.67l-.02-.11Z"/>
    <path class="cls-2" d="m303.85,75.17l.27.38s.4.27.56.31q.29.07.82-.01c.15-.01.22.05.33.2.26.4,1.09.42,1.09.42.26,0,.41-.03.41-.03.34-.13.61-.35.94-.49.28.04.66.08.94.11q.43-.66.45-.78l.14-.25s.04-.02,1.43-.19l-.09-.34c-.03-.18.14-.31.11-.48q-.03-.08-.29-.36l-.05-.06c-2.56.36-5.14.71-7.71,1.08.2.18.46.29.64.48Z"/>
    <path class="cls-2" d="m300.38,13.34c.37-.02.74-.03,1.11-.05l-.12.03,1.45-.04-1.05.05-.1.02-.7.04,1.48-.03,1.53-.02h.22s-.72.04-.72.04c.57,0,1.14,0,1.72,0q2.15-.02,2.45-.04c.66-.01,1.34-.04,2.01-.04l.15-.04.13-.03.75-.02,1.46.02-.24.02.34.03c-.35.03-.38.03-1.51.02.41.02.94.03,1.36.05l1.02.02.29-.03c1.77.03,3.54.05,5.3.12h.91s1.47.08,1.47.08l.09-.02.15-.04.71.07,2.17.19,1.1.04.25-.02-1.38-.12.28-.02,1.95.21c.76.05,1.49.12,2.23.15l-.33-.1-1.27-.12.1-.03c.93.07,1.88.16,2.84.22l1.58.17-1.01-.09-1.17-.09c.62.13,3.26.46,3.28.46l.18-.05c1.4.13,2.79.39,4.2.56l.05-.07.06-.02,2.02.31,2.27.33.55.04,2.33.42-1.19-.16,1.72.32c1.61.28,1.67.29,3.62.58l.05-.02.26.03q-.24-.09-1.9-.4l.04-.03c.16.02.38.06.54.08q-.36-.1-.93-.23c.44.07.9.14,1.31.23-.28-.07-.58-.15-.86-.21.3.05.72.12,1.03.17l-1.12-.23-.32-.06-.12-.02c-.45-.08-.89-.16-1.35-.23-.83-.14-1.67-.28-2.51-.41l-.31-.06.86.12-.36-.06c-1.57-.22-3.16-.48-4.74-.71.98.21,1.96.34,2.92.5h-.18s-1.77-.23-1.77-.23l-2.09-.28c.88.11,1.74.22,2.61.32l-.18-.07-1.75-.24-1.44-.17.32.02v-.02s-.51-.08-.51-.08l-1.27-.15c-.59-.07-1.17-.13-1.77-.2l-1.12-.11h.1c-.13,0-.26-.01-.39-.02l-.2-.02h-.31s.47.06.47.06l2.69.34c-.64-.07-1.27-.15-1.91-.22-.7-.07-1.39-.08-2.08-.23l-1.11-.13-1.51-.14c-.34-.03-.69-.06-1.03-.09h-.07s-.2-.03-.2-.03h.17s-1.88-.14-1.88-.14l-.35-.02c.68.03,1.36.07,2.02.27h-.35s-.58-.09-.58-.09l-1.62-.12-.97-.07-.3-.04c-.55-.03-1.09-.05-1.62-.08h-.34s-.01,0-.01,0c-.41,0-.8-.03-1.21,0l-.69-.02-.2.02-.06.02-1.32-.03-.13-.02-.3-.02.22-.02c-1.06-.02-2.14-.02-3.18-.03h-.22s-.26-.01-.26-.01c.79,0,1.58,0,2.37,0l1.49.04,1.66.04.04-.02-.32-.04c.75.03,1.51.05,2.27.08l-.26-.03.13-.02-1.97-.08-1.95-.05-1.46-.03h.31s1.15.02,1.15.02l1.96.05q-.6-.04-3.7-.13h-1.96s-.34-.02-.34-.02h-.36s-1.47,0-1.47,0h.19s-1.31.02-1.31.02h.03s.02.01.02.01c-.49.02-.84.03-1.1.04h0c-.09,0-.17,0-.26,0-.16,0-.29,0-.37,0-.89.02-1.79.04-2.7.06l-.32.02,1.16-.03-.28.03s.09,0,.13,0l-1.68.06c-.44.02-.89.04-1.35.07h.31s-.01.01-.01.01l-1.32.05h-.03c.58,0,1.2-.03,1.79-.04h-.02c-1.62.06-2.83.12-3.41.15h.37c.7-.03,1.4-.06,2.1-.08-.67.05-1.34.06-2.02.1.46,0,.92-.03,1.38-.05-.82.06-1.62.07-2.43.12.27,0,.57-.03.85-.01Zm7.77-.42h.13c.57.01,1.15,0,1.73,0-1.29.05-2.58.01-3.88.04h.01c.67-.03,1.33-.05,2.01-.05Z"/>
    <path class="cls-2" d="m292.36,14.35c.32.02.76.04,1.07.05.39-.05.75-.11,1.1-.17.16,0,.35,0,.53,0,.45-.02.48-.02.49-.02h.51s-.35.06-.35.06h-.51s-.16.02-.16.02l-.17.02h-.05s-.24.04-.24.04c.3.08.24.09.15.1-.34,0-.36,0-.36,0,.17.02.38.04.53.06.31.12.29.12.29.12l-.33.03c.27.02.54.05.8.08q1.01-.03,1.6,0c.67-.06.93-.1,1.21-.14l.57.02c.55-.04.88-.09,1.2-.16,1.22,0,2.45.13,2.79.17-.17,0-.39,0-.57,0-.18,0-.18,0-.18,0h-.02s0,0,0,0h0c-.35,0-.36,0-.36,0h0s-.02,0-.02,0h0s0,0,0,0c-.3,0-.72-.01-1.04-.02-.52.08-.67.1-.81.12-.17,0-.4.01-.58.02l.16.12.54.03c.24-.03.25-.03.28-.04q.58.05,1.6.16c-1.3,0-2.58-.19-3.89-.12h-.08c.62.15.97.22,2.15.31.37.06.64.11.9.16,1.1.15,2.21.24,3.3.45-.92-.08-1.84-.24-2.78-.31-.43-.02-.43-.02-.43-.02h0s-.02,0-.02,0h-.02s0,0,0,0h0s-.02,0-.02,0c-1.17,0-3.72-.16-3.72-.16-.5-.03-.52-.02-.52-.02h0s0,0,0,0h0s0,0,0,0l-.26.09c-.17.02-.38.05-.55.07l.37.26q.91.24,1.65.27c.32-.03.35-.04.37-.05.73.07,1.42.25,2.13.3.21,0,.25,0,.29-.01.33-.05.78-.06,1.11-.04v.08c-.32.05-.61.1-.91.15l.34.11c4.18.56,5.82,1.09,5.82,1.09.46.08.49.08.53.07q.71.06,1.68.39l.37-.06q2.56.83,2.73.87c.6.19.81.25,1.54.59q-1.6-.15-2.08.08c.25.19.66.37.97.43.29-.03.33-.03.37-.04.56.07.92.23,1.27.39-.35.09-.43.1-.52.11-.17,0-.38-.01-.56-.02.19.47.24.49.3.53.15.05.38.11.54.16,1.25.58,2.1,1.04,2.95,1.53l.38.06q-.73-.6-2.02-1.1l-.16-.09c.12-.46.24-.48.34-.49.87,0,.97.02,1.6.17l.24.1.47.26c.02.15.05.36.07.52-.16.03-.38.08-.52.12.28.2.6.48.85.68.65.53.99.71,1.29.91.29-.03.69-.04.96.01q1.34.71,1.8,1.26l-.18.52c.23.18.66.32.95.31.19-.04.31-.05.41-.06.27.02.64.07.92.13q2.3.31,2.36.39c-.33.01-.77,0-1.09-.05.1.65.22,1.25,2.06,1.39.26-.31.34-.32.43-.33.3,0,.74.08,1.05.22.54-.04.84-.08,1.11-.13-.33-.21-.65-.41-.96-.62.28-.05.58-.09.88-.14l.43.14c.02.16.02.37.04.54q1.4.41,1.57.49c-.23.04-.5.07-.75.11q-1.06-.26-1.59-.11c.15.28.46.6.77.75.41.24.52.33.64.41q.98.69,1.49.89c.46,0,.55-.02.6-.03-.02-.17-.04-.39-.06-.56.17-.02.39-.05.54-.08q.04.43,1.4,2.18c-.57,2.18,2.7,1.7,4.04,2.57l.51.16.22-.47q-.19-.24-1.29-1.19c.95-.12,1.85.24,2.77.09l.17-.03c.76.18,1.02.37,1.26.55l.41.36-.09.52c-.15.09-.38.2-.53.27-.5.09-.6.11-.67.12.03.17.06.4.09.58-.36.38-.4.38-.45.39l-.93-.27c-.3-.1-.72-.24-1.04-.35l-.08.18q.57.43,2.08.91c.86-.01,1.3-.08,1.77-.16,3.91.68,7.34,3.4,11.57,2.75l.13-.53c.26-.05.58-.16.76-.32l-.08-.19.03-.04-.03-.14.03-.03.04-.04v-.05c.22-.07.24-.08.27-.08l.08.05q.97.77,2.56,1.35c.36.2.48.3.63.41l.81.14q1.47.79,2.02.89c1.06.5,2.21.8,3.23,1.38q.57.42,1.54.43c.32-.06.4-.08.49-.09,1.26.32,2.28,1.48,3.74,1.05q-.24-.55-1.15-1.22c.12-.18.41-.23.71-.28.54.37.65.44,1.42,1.08.67.03,1.19-.05,1.72-.14q4.58,2.95,5.85,3.48c.82.62,1.52,1.2,2.21,1.79,1.34.52,2.41,1.67,3.97,1.63.23,0,.32-.02.4-.04.51,0,1.46.02,8.16,6.19.37.34.51.48.66.6,1.22,1.16,2.52.96,2.96.89.02-.3-.13-.73-.33-.96.18-.26.42-.62.6-.89-.19-.28-.46-.62-.69-.87.3-.38.35-.38.39-.39.17.02.37.03.55.04.5.12.58.1.67.09,0-.31-.06-.74-.14-1.04l.34-.45c-3.46-6.19-5.62-7.25-8.63-8.71-.72-.48-1.34-.93-1.97-1.36.96-.18,1.67.58,2.55.68q-.32-.66-3.61-2.59c-.39-.06-.45-.04-.52-.03-.29-.17-.67-.4-.93-.58-.05-.25.01-.26.07-.28.34.08.79.2,1.13.29q-.26-.75-5.06-4.19c-.51-.34-.63-.4-.74-.45-.78-.46-1.67-.54-2.47-.89-.96-.16-1.77-.62-2.6-1.06-.36.12-.41.12-.48.14h-.02c-.33-.07-.8-.18-1.12-.3-.51.05-.67.08-.84.12-.49-.27-.97-.54-1.47-.8-.27-.18-.6-.44-.84-.66-.36-.26-.45-.31-.54-.34-.52-.17-1-.4-1.52-.58-.3-.12-.39-.16-.48-.2l-.46-.29c.21-.27.31-.29.43-.31l-.08-.52c.16-.09.26-.11.36-.13l.61.23v.52c.32.35.91.64,1.5.95q.68-.13,2.2.43-.82-1.04-.92-1.4l-5.6-1.68.42.31q-.29.27-.29.27l-.32.05c-.21.13-.31.14-.41.16l-.57-.24c-.55-.31-.65-.36-1.24-.97v-.05s.01,0,.01,0h.02s.01,0,.01,0h.02s.01,0,.01,0q-.35-.54-1.8-1.22.59-.18,1.6.27c.24-.05.48-.1.71-.15.07-.18.12-.18.15-.2l-.41-.38c-.49-.23-.86-.37-1.22-.52l-.25.06c-.71-.26-1.37-.58-2.07-.84l-.51-.11c-.51-.11-.87-.25-1.23-.39l.3-.06c-.31-.12-.74-.28-1.08-.38-.83-.28-1.3-.44-1.77-.61q-1.05-.47-1.59-.63c-.43-.14-.48-.16-.55-.18l-.62-.3-.13-.08c-.32-.12-.75-.29-1.07-.41-.39-.15-.77-.27-1.15-.45l-.25-.09-.35-.14-.22-.1c-.19-.07-.47-.17-.64-.27l-.27-.09c-.22-.08-.54-.18-.76-.26l-.16-.08-.07-.06-.15-.07h.09s-.04-.05-.04-.05l-.24-.09-.24-.09-.51-.17c-.66-.18-1.31-.36-1.96-.53l-.62-.22v-.06s-.16-.1-.16-.1l-.75-.25h.05s.05-.02.05-.02l-.11-.1-.42-.18-.02-.02.27-.06-.03-.03-.1-.04-.27-.07-.41-.18h.04s.14-.07.14-.07l-.1-.04-.49-.16.51.06.33.06h.1s.02.01.02.01h.01s.12,0,.12,0l.19.02.18.02.32.07v-.1s-.2-.05-.2-.05l.13-.03c.21.03.41.08.61.13l.1.02-.13-.05h-.04s-.1-.06-.1-.06l-.02-.13c.35.08.83.18,1.16.27l.29.07.25.05h.04s0-.02,0-.02l-.16-.1-.27-.08-.1-.04-.37-.13-.13-.03-.1-.05-.14-.04-.29-.07-.27-.07-.28-.07-.23-.08-.29-.07-.3-.06-.28-.04-.26-.04q-1.01-.29-1.25-.4l-.29-.06c-.7-.16-.84-.19-1.45-.28l-.13.04c-.27-.04-.61-.11-.88-.14h-.04s.23.12.23.12h-.03s-.48-.04-.48-.04h-.16s0,0,0,0h0s-.04.02-.04.02l.05.02.2.04h-.04s.12.04.12.04h-.02s-.02,0-.02,0c-.28-.04-.66-.09-.95-.12h-.18c-.17-.04-.38-.08-.56-.1-.51-.1-.91-.16-1.33-.23h.04s0-.03,0-.03c.47.02.52,0,.56,0l.18.02.47.04.08-.02-.54-.16-.05-.02-.53-.12.2-.06c-1.4-.23-2.8-.54-4.21-.7l-.09.03-.18-.02-.33-.03-.32-.04-.31-.04-.34-.04-.16-.02h-.1s-.17-.01-.17-.01l-.57.03c-.45-.03-.48-.02-.53,0l-.17-.02c-.16,0-.37-.03-.55-.05-.25-.02-.37-.04-.52-.05l-.45-.06h-.53s.12.02.12.02l.05.07-.39-.02-.53-.04v.02s-.03,0-.03,0h-.33s-.32-.03-.32-.03c-.35-.03-.77-.07-1.11-.1-.91-.09-1.39-.14-1.86-.19l-.32-.03-.29-.03-.3-.03c-.56-.05-1.12-.1-1.66-.14l.42.02h.08c.41-.02.42-.02.43-.03l-.31-.02-.22-.02c-.23-.05-.21-.06-.21-.06-.31-.02-.73-.05-1.04-.06l-.31-.02c-.35-.02-.81-.04-1.15-.06h-.09s-.02,0-.02,0l-.24-.02h-.41s-.09-.01-.09-.01h-.26s-.25-.02-.25-.02h-.27s0,0,0,0h-.25s-.26,0-.26,0c-.28,0-.68-.03-.99-.03-.55-.03-1.08-.03-1.64-.03-.27,0-.61-.02-.89-.03l-.06.05.3.02.2.02.07.05c-.84-.04-1.66-.07-2.49-.1l-.32-.02h-.3l-.28-.02c-.44-.02-.89-.03-1.32-.02h-.6s-.08,0-.08,0h-.44s-.17,0-.17,0l-.29.02h.2s.3.02.3.02h.3s.28.01.28.01l.47.03.5.03h-.02s.07.02.07.02l.23.02h.19s.21.03.21.03h.27s.31.04.31.04h.04s.13.01.13.01l-.1.02h-.3s-.53-.04-.53-.04h-.13s-.53-.04-.53-.04h-.14s0,0,0,0h0s0,0,0,0l.04-.02-.33-.02h-.36s-.29-.02-.29-.02h-.29s-.3-.01-.3-.01h-.19s-.11-.02-.11-.02h0s0,0,0,0h-.06s-.04,0-.04,0h-.3s-.3,0-.3,0h-.31s-.08,0-.08,0h-.12s-.12.03-.12.03h-.36s-.18.02-.18.02h-.08s-.09.02-.09.02h.05s-.37.02-.37.02h-.16s-.15,0-.15,0h-.02s-.17,0-.17,0h-.49s-.57.02-.57.02h-.35s.24.02.24.02h.47s.19.01.19.01c.26,0,.6.01.87,0h.28s.27.01.27.01h.43s.25.02.25.02h.29s.3.01.3.01h.3c.3,0,.7.01,1.01.02.18,0,.39.01.55.02.2,0,.28.01.4.02l.52.03-.17.02-.38-.02c-.51-.01-1.03-.02-1.54-.04l-.3-.02h-.3s-.36-.01-.36-.01c-.59,0-1.18-.03-1.76-.05-.68,0-.85,0-1,0h-.08s.02.02.02.02l.24.02h.27s.33,0,.33,0h.21s.13.02.13.02h.06s.58.03.58.03h.17s.11.02.11.02l.72.04.26.02.23.02h.13s.25.01.25.01l.18.02h.25s.05.02.05.02h.03s-.06.02-.06.02h-.41c-.26-.03-.61-.04-.87-.06h-.26c-.26-.02-.55-.04-.8-.05l-.33-.02h-.19s-.71-.04-.71-.04h-.12l.03-.02c-.37,0-.88-.02-1.25-.03-.16,0-.37.02-.54.02l.39.04-.09.02h.11s.07,0,.07,0h.11s-.02,0-.02,0l.57.02h.15s.26.02.26.02h.12s.24.02.24.02h.06c.16.02.41.04.57.08l.29.02h.02s.11.02.11.02c.3.03.29.03.29.03h.1s.12.04.12.04l-.88-.04-.27-.02h-.26s-.31-.03-.31-.03l-.73-.04-.52-.03h-.17s-.05,0-.05,0l.04-.02h.01s-.12-.02-.12-.02h-.05s-.7-.04-.7-.04h-.25s-.8-.02-.8-.02h-.28s-.24,0-.24,0h-.1s.06.02.06.02h.04s.2,0,.2,0h-.02s.15.01.15.01h.05s.04,0,.04,0h-.01s.25.02.25.02h.26s.17.01.17.01c-.5,0-1-.01-1.51-.03h-.24s-.26,0-.26,0c-.28-.02-.28-.02-.28-.02h-.12s-.25,0-.25,0c-.32,0-.77.01-1.1.02q-.2,0-.2,0h-.14c-.2.06-.22.07-.22.07-.31.01-.76.03-1.08.04.17,0,.39.01.56.02.41.02.35.03.29.04-.93.07-1.87.04-2.8.07l-.1.03h.06c-.38.02-.77.03-1.17.06-.16.03-.38.06-.54.09l.11.02-.05.07Z"/>
    <path class="cls-2" d="m356.74,48.64c-.26-.33-.58-.76-.83-1.09-.77-.04-2.1-.11-3.17.49-.24-.31-.85-.33-.78-.88l.27-1.03.73-.1c.49.03.96.19,1.46.16-2.27-3.12-4.98-1.2-5.01-1.18-.22-.23-.43-.44-.64-.67l-.79-.07c.11.24.04.52.18.75.21.22.41.44.62.66.21.23.42.45.63.69-.41.06-.81.12-1.23.19-1.07.04-2.06-.55-3.14-.48-.53.03-.71.11-1.07.25-.3.14-.55.45-.93.42-1.06-.1-1.93-.79-2.97-.97-.34-.06-.44-.05-.6-.02-.52.07-1.05.15-1.57.22q.5.7,1.91,2.23-.75.2-1.07.55c-.07.29.15.5.18.76.34.48.69.96,1.03,1.45q2.59-.42,3.22-.33c.98.15,1.22.28,1.88.7.41.25.9.01,1.32.14,0,0,1.08.45,1.29.59q1.29.94,1.9,1.1c.53.15,1.02-.16,1.55-.16,1.08-.02,1.05-.79,1.05-.81q-.14-.67.53-.7c.27-.05.5-.08.72-.11.72-.12,1.45-.08,2.18-.13.22-.03.42-.06.65-.1l-.31-.78c-.42-.47-.84-.95-1.26-1.43v-.2c.43-.07.87-.13,1.28-.2.29,0,.54.06.81.08Z"/>
    <path class="cls-2" d="m401.64,213.57l-.14-1.31c.15-1.57.56-3.1.55-4.69q-2.37-1.82-2.52-2.09c-.13-1.46-.18-1.9-.24-2.35-.09-.8-.17-1.46-.25-2.11-12.76,7.37-25.53,14.31-38.14,20.67-26.81,13.53-51.75,24.68-76.22,34.1-18.78,7.23-34.32,12.72-48.89,17.27-.24.08-.49.14-.73.22,6.98,4.6,13.45,9.71,16.86,17.83l.17.57c-.82,3.75,2.59,7.26.63,11.08.29,2.61,1.02,4.74,1.77,6.85-.08.7.06,1.68.29,2.35.36.94.55,1.46.74,1.98,4.88,7.19,13.5,8.47,20.21,12.81q.09,7.43.81,9.54c2.5.83,9.28,3.81,9.28,3.81-.81,7.6,13.81,13,13.96,13.04q.78,1.4,5.75,1.6c.16.28.35.66.51.94,2.52.38,4.26.15,6.01-.06q1.48.07,3.5.53c1.6-.19,2.96-.37,4.32-.56,1.57-1.02,1.53-1.23,1.22-2.62.28-.04.57-.08.85-.11.23-.21.54-.51.78-.73-.39-.52-1.09-1.08-1.66-1.37-.31-.41-.35-.54-.38-.68.88-1.75.79-2.07.46-3.29,3.2-4.22,5.04-14.05,5.05-14.13-.23-1.61-.46-3.23-.7-4.88q.55-.8,1.09-5.5c2.54-1.88,2.53-2.85,2.5-6.06,1.85-1.38,2.12-1.59,1.7-4.96-.8-6.17-6.66-10.07-7.33-16.32,1.19-.7,1.36-.81,1.32-3.02-.05-.38-.09-.75-.15-1.13-.12-.29-.28-.67-.42-.97,3.91-7.22,3.12-16.73,10.79-22.12-.17-.31-.41-.72-.6-1.03-.32.03-.76.07-1.09.1-1.21-2.05-3.42-11.16-3.45-11.24-.44-1.95-.59-3.22-.75-4.49,3.53-.48,7.07-.97,10.57-1.45,2.12-.75,3.11-1.1,3.61-6.46.74-.47,3.4-1.86,6.9.52.19-.02.38-.05.57-.08,5.07-1.18,6.28-1.46,7.84,1.51,5.06.43,7.16.61,7.84-1.82,1.14-.16,2.29-.39,3.44-.51,1.08-.13,1.3-.16,1.55-.2,1.5.18,2.92-.54,4.4-.5.33.66.81,1.52,1.19,2.15.02,0,3.98.3,9.9-6.44q-.25-2.09-.05-3.39c7.31-2.56,7-5.02,6.57-8.42.08-.06,8.63-6.61,8.22-12.38Z"/>
    <path class="cls-2" d="m258.78,338.55c-.15-.31-.31-.62-.46-.92-.31-.77-.14-1.63-.46-2.39-.07-.16-.16-.31-.23-.47-.17-.19-.2-.23-.58-.42-1.15-.57-1.07-2.02-1.95-2.77q-1.63-1.41-1.84-1.31c-.31.17-.46.25-.71-.03-.16-.18-.78-1.69-.79-1.7-.07-.25-.09-.33.19-.77.31-.48-1.18-3.65-1.19-3.68-.42-.69-1.26-.92-1.72-1.57-.45-.62-.32-1.47-.9-2.03-.42-.42-1.01-.31-1.53-.46-1.74-.53-3.48,1.07-5.25.01-.68-.42-.77-1.32-1.4-1.8-.34-.26-.74.22-1.08-.09-.12-.11-.19-.26-.29-.69-.05-.15-.96-1.47-1.21-1.59q-3.16-1.62-3.62-2.06c-.09-.09-.1-.12-.91-2.11-1.98,1-2.19,1.87-2.2,2.19l2.13,5.72c.08.17.18.34.24.51.53.76,1.54.88,2.08,1.62.07.17.15.34.25.51.1.34.12.7.25,1.03.16.34.32.67.49,1,.44.74,1.22,1.15,1.79,1.77.83.93.34,2.29,1.07,3.25.35.47.94.35,1.4.57.8.42,1.86.23,2.56.95,1.11,1.16,1.25,2.86,2.27,4.07.74.86,1.93,1.14,2.68,2,1.17,1.38,1.48,3.31,2.91,4.52,2.72,2.31,5.41,1.35,6.42.84-.03-.25-.12-.48-.13-.72.94-.19,1.92-.19,2.84-.38q-.56-1.05-1.14-2.61Z"/>
    <path class="cls-2" d="m327.64,96.93q.56.2,1.17.12.14-.02,1.01.53c.78.48,1.57-.09,2.36.04l.32-.04c.65-.18.86-.95,1.53-1.13.73-.2.91.88,1.62.7,1.01-.25,2.04-.26,3.03-.55.25.18.34.24.69,1.34.49-.07.98-.13,1.47-.21q.83-.51,1.01-.47.21.38.87.61,1.46.2,1.99-.28-1.84-.32-2.39-2.06c-.48-.03-.99.03-1.47-.03-.51-.07-.71-.75-1.3-.65-1.14.23-1.82.07-2.01.01-.29-.09-.43-.38-.44-.87.69-.63,1.72,0,2.42-.65.78-.74,1.64,0,2.45-.14.25-.62.12-.84-.23-1.54h-.04s-.03.01-.03.01h-.04s-.03,0-.03,0h-.05s-.05,0-.05,0h-.03s-.04.02-.04.02q-.05,0-1.64-.75c-.23-.02-.4,0-.57.04-.31-.42-.36-.59-.44-.98.75-.25,1.64.05,2.29-.59l-.3-.46c-.31.05-.6.12-.89.15l-.36-.49q-.57-.46-1.01-.37l-.21.03c-.88.09-1.41,1.26-2.46.79-.62-.28-.67-.56-.6-1.1.07-.43-.32-.95-.52-1.32l.23-.15c1.33-.81-.51-2.36.67-3.25l.4.44c.77-.11,1.54-.22,2.31-.33q.14-.64.01-.88c-.28-.55-1-.12-1.29-.61-.32-.5.12-1.13-.28-1.63l.24-.53q.46.48.54.78c.36.07.69.04.97,0q.11-.18.15-.9c.38-.22.48-.17.79-.02.43-.02.73-.06,1.04-.1l-.09-.36c-.07-.37-.16-.88-1.49-.8-.75.04-.57-.92-.88-1.34-.09-.21-.16-.36-.21-.51l-.36-.37c.35-.28,1.06-.17,1.1-.81,0-.01-.14-1.35-.98-1.48l-.4.02c-.3.1-.16.51-.46.62q-.05.02-1.28.09c-.26-.51-.35-1.08-.66-1.57-.39-.56-.94-1-1.21-1.66-.74-.24-1.42.28-2.14.16-.27.03-.47.06-.69.09l-.45.03c-.3.08-.32.11-.44.5.46.49,1.39.27,1.65,1.06q.07.2,1.2,1.37c-1.37.25-2.81.45-4.24.66.22.61.45,1.21.67,1.83.32.67,1.34.53,1.55,1.33.09.26.15.42.21.57q1.19.08,2.21,1.15-.27.66-1.91,1c-.58.13-1.12,1.57-.89,2.04l.09.37c-.54.48-.75.68-.48,1.32l-.42.24c-.03.17-.02.35-.09.51-1.4.44-1.18.94-.34,2.83-.47.07-.95.13-1.43.21q.45,3.14-.2,2.91c-.92-.33-.99-.8-1.07-1.21l-.5-.06c-.26.28-.62.46-.8.81.11.34.29.89-.38,1.5.04.38.14.71.23,1.05.31-.05.64-.09.98-.14q.48,1.06.84.94c.73-.26.87.25.93.44.06.15.08.24.1.32.04.46-.21.96-.4,1.36l.28.49Z"/>
    <path class="cls-2" d="m267.22,20.66c-.22.1-.45.22-.67.34-.14.08-.42.22-.55.4h.1s.06,0,.06,0q.23-.05.42-.05l-.33.18c-.64.36-1.27.69-1.18.84q.1,0,.97-.33c.21-.09.6-.27.79-.37.21-.13.42-.26.62-.39l-.23.03q.06-.09.71-.43v.03c.21,0,.37-.18.6-.11v.03s-.03.16-.03.16l-.04.1c.16.03.68-.26,1.39-.67l-.2.03c-.31.05-.56.22-.86.3t.64-.44c-.24.08-.44.17-.69.21h-.04s.1-.12.1-.12v-.03c-.21.02-.38.12-.58.11.16-.29.51-.29.74-.47h-.01s-.1,0-.1,0v-.03s-.02,0-.02,0l-.25.1c-.34.16-.69.33-1.02.5-.12.02-.16.03-.33.08Z"/>
    <path class="cls-2" d="m264.12,20.97c.14.04.18.04,1.06-.33l.62-.19s-.02.03-1.58.74l.16-.02c.3-.06.56-.21.87-.27l-.13.07q-.22.1-.22.14h.18s-.18.13-.18.13h.18s-.17.14-.17.14l.21-.03c-.19.23-.51.25-.73.42v.02s-.02.02-.02.02l.34-.14.26-.17q.26-.18.34-.25h0s0,0,0,0h0s0,0,0,0h0s-.05,0-.05,0l.07-.14h-.3c.22-.11.44-.21.65-.32.17-.07.34-.12.47-.21v-.03c.25-.12.53-.2.77-.34h-.1s-.09.02-.09.02h-.1s-.33.07-.33.07c.47-.26,1.02-.37,1.48-.66l.03-.05h-.08s.04-.04.04-.04v-.03c-.17.03-.32.12-.49.18q-1.5.67-1.59.67l.02-.02h-.16c-.18.08-.35.16-.52.23-.17.07-.35.13-.5.21l-.4.18Z"/>
    <path class="cls-2" d="m263.49,20.81l-.3.1c.16-.14.39-.13.55-.29l-.28.04.47-.21h-.02s-.36.06-.36.06h-.09c-.27.08-.52.19-.77.28h0s-.03.04-.41.25t-.27.15c-.6.26-.79.35-.87.44l.02.02c.29-.04,2.31-.82,2.32-.82Z"/>
    <path class="cls-2" d="m278.45,25.05l.04.45.12.05c.17-.03.35-.05.51-.07q.18-.74.38-.81c.4-.12.41.46.76.46l.39-.06c.12-.41.16-.55-.21-.75-.05-.23-.14-.85.71-.93.36-.04.12-.5.18-.76l.02-.07c.37-.05.73-.09,1.1-.12-.08.3.02.64-.2.91.09.27.37.23.6.18-.02.32-.04.65-.04.99.36-.06.43-.08.59.1.23.27.09.6.16.88.07.42.58.29.76.59v.21s.21.04.21.04q.84-1.43,1.31-1.47c.46-.03.52-.04.65-.27.17-.31.37-.96-1.39-.49l-.77-.3-.14-.17q.1-.23.26-.28h.08c.27.02.42.24.67.31.27.08.4.03.85-.13l.22-.04q.08,0,.48.03l-.07-.4c-.1-.58-1.94-.28-1.94-.28l-.22.03q-.4.1-.47-.08l.1-.06v-.41s.16-.16.16-.16l.3.24c.21-.02.4-.05.59-.13q.02-.49.16-.64h.3s.03.3.03.3l-.02.15q.19.06.31.03c.18.14.17.59.48.49l.2-.02c.18,0,.43-.02.56-.29l.06-.42s.16-.08.32-.04l.12.46s.25.37.73-.45c.15-.25-.04-.5-.01-.76-.52.06-.36.65-.64.88-.21-.31,0-.67-.11-.98-.36-.17-.25-.41-.25-.41.09-.22.35,0,.5-.09,0,0,.75-.64-.53-.73-.29.04-.56.08-.85.1-.07-.13-.31-.29-.49-.26v.16s.36.21.36.21l.04.26-.43.06c-.27-.08-.4-.36-.66-.45l-.26.07v.27s0,.2,0,.2l-.02.13v.21s-.15.4-.15.4c-.05.03-.29.16-.46-.19-.09-.22.1-.36.11-.55v-.16c0-.36-.14-.41-.2-.44l-.1.02c-.34.11-.79.27-1.13.4-.05.21.26.36.12.6l-.54.15-.05.41q-.14.13-.51.27c-.19.07-.32-.21-.52-.11l-.17.07c-.19.13-.21.38-.38.5-.17.12-.4.05-.57.18-.21.41-.23.46-.5.54-.21.06-.29.35-.39.76-.34.04-.69.09-1.06.19-.02.13-.02.16-.21.62q-.87.18-1.19.52l-.03.21.3.06c.34-.05.68-.09,1.02-.14Z"/>
    <path class="cls-2" d="m262.36,22.04c-.24.18-.54.3-.78.47l.44-.05c.29-.15.57-.3.85-.44-.02-.02-.08-.05.14-.18l.29-.26h-.02c-.22.03-.44.05-.67.07l-.43.19-.39.19.4-.04c-.55.26-.95.45-1.17.58h.1s-.1.07-.1.07c.2-.03.55-.21,1.34-.6Z"/>
    <path class="cls-2" d="m336.29,71.77c.14.17.37.22.52.4l.19.43s.52.11.75.01l.17-.03.76.59q.14.14.81.37l.32-.29c-.1-.19-.15-.42-.33-.57-.3-.28-.7-.4-1.03-.64l-.34-.39-.07-.02-.46-.04c-.36-.13-.64-.39-.99-.5l-.9-.17.06.11c.13.18.28.42.44.63l.1.11Z"/>
    <path class="cls-2" d="m282.7,20.97h0s.02-.08.02-.08l-.03.08Z"/>
    <path class="cls-2" d="m349.19,91.02q.27.54.32.56c.09.05.89.53,1.34.5.23-.3.85-.67,1.51-.33.49.26.78.08,1.24-.43.25-.29.03-.74-.04-.88l-.18-.23c-.16-.21-.48-.09-.65-.29-.25-.3-.2-.74-.45-1.03l-.11-.12q-.73-.73-1.93-.68c-.22-.51-.44-1.01-.63-1.52q.9-.07,1.55-.22c-.48-1.15-.97-2.28-1.46-3.4-.18-.02-.4-.03-.58-.04q-.38.44-.54.41c-.36-.07-.67-.27-1.06-.18-.34.1-.64-.17-.98-.12l-.21.03h0s.22-.03.22-.03c-.22-.84-.75-1.55-1.07-2.34q-1.06.03-1.29.17c-.27.16-.09.46-.2.66l-.36.31c-.18-.08-.38-.08-.55-.17-.19-.1-.21-.36-.42-.44,0,0-.9-.22-1.28-.19l-.21.04-.26.38c-.15.14-.36-.03-.52.1-.23.22-.28.34-.31.43-.13.42.53.73.19,1.18-.42.58-.16,1.09-.06,1.23.22.36.66.74,1.55.61.12.32.24.64.36.96.19.66.53,1.28.75,1.93q.3.94.73,1.37c.16.18.49-.03.62.24.17.35-.07.72.03,1.07.08.23.17.47.26.7,1.35-.19,2.7-.38,4.05-.58.2.15.51.09.64.36Z"/>
    <path class="cls-2" d="m278.35,20.85l-.11.34-.09.19q.25.18.75-.06c.23-.11.27.27.47.3,0,0,.41.05.78-.17l.26-.25q.12-.05.39-.04c.25-.03.49-.06.74-.09.24-.06.41-.24.63-.37l.07-.35c-.3.03-.64.08-.96.12.1-.18.13-.24.44-.37.18-.08.34.07.53,0l.31-.15.13-.02c.73-.36.23-.66.23-.66-.29-.08-1.22.17-1.22.17-.39.18-.45.33-.58.7l-.13.05q-.05-.16.17-.8l-.32.04-.16.08h-.05s-.04,0-.04,0v-.12s-.1-.02-.1-.02l-.1.15-.04.08.05.3q-.35.21-.47-.32s-.32-.05-.77.67l-.24.04-.1-.03s-.08-.11-.41,0q-.09.03-.49.35l.07.07c.08.15.28.01.36.17Z"/>
    <path class="cls-1" d="m516.73,348.2c11.42-10.82,21.74-22.6,30.01-36,7.86-12.74,13.36-26.18,13.87-40.94.11-16.75-5.54-29.66-8.74-35.61-7.93-14.4-19.99-24.84-33.11-34.19-2.31-1.65-3.24-3.39-3.52-6.12-1.01-9.64-1.31-19.38-3.9-28.83-.97-3.55-1.58-7.21-2.41-11.04.84.13,1.25.1,1.55.26,23.65,12.35,45.73,26.87,62.31,48.2,10.4,13.39,18.28,27.97,18.36,45.26h.02c.18,4.15-.24,8.35-.92,12.26,0,.23-.02.48-.1.78-.04.15-.08.31-.12.46-.87,4.55-2.06,8.58-3.05,11.53.01.02.02.04.03.06-.19.47-.36.94-.54,1.41-.74,2.08-1.27,3.33-1.29,3.37-.68,1.79-1.39,3.56-2.19,5.29-10.77,23.1-26.93,41.69-47.66,56.38-7.74,5.49-14.53,8.58-21.47,9.81,1.49-1.2,2.22-1.72,2.86-2.33Z"/>
  </g>
</svg>